<?xml version="1.0" encoding="UTF-8"?>
<!DOCTYPE svg PUBLIC "-//W3C//DTD SVG 1.1//EN" "http://www.w3.org/Graphics/SVG/1.1/DTD/svg11.dtd">
<!-- Creator: CorelDRAW 2017 -->
<svg xmlns="http://www.w3.org/2000/svg" xml:space="preserve" width="22.6105mm" height="21.3164mm" version="1.1" style="shape-rendering:geometricPrecision; text-rendering:geometricPrecision; image-rendering:optimizeQuality; fill-rule:evenodd; clip-rule:evenodd"
viewBox="0 0 2261.06 2131.65"
 xmlns:xlink="http://www.w3.org/1999/xlink">
 <defs>
  <style type="text/css">
   <![CDATA[
    .fil14 {fill:#449E72}
    .fil8 {fill:#57CE95}
    .fil13 {fill:#69859D}
    .fil6 {fill:#6FB0AD}
    .fil5 {fill:#79D8AA}
    .fil0 {fill:#86ADCD}
    .fil7 {fill:#8CC0BD}
    .fil10 {fill:#C54949}
    .fil12 {fill:#C5824D}
    .fil11 {fill:#C68839}
    .fil1 {fill:#FE8181}
    .fil9 {fill:#FEFEFE}
    .fil2 {fill:#FF6061}
    .fil4 {fill:#FFAC66}
    .fil3 {fill:#FFB149}
    .fil15 {fill:#FFBCBC}
   ]]>
  </style>
 </defs>
 <g id="Layer_x0020_1">
  <metadata id="CorelCorpID_0Corel-Layer"/>
  <g id="_2054929734720">
   <path class="fil0" d="M489.78 857.53c3.89,-5.5 140.74,-105.01 149,-108.43 19.72,11.19 37.92,30.43 57.88,40.42l-0.27 -26.43 34.63 -0.11 0.38 51.97c8.11,7.56 14.61,14.05 27.32,14.53 13,0.52 27.82,-0.15 41.04,-0.15 27.44,0 54.91,0.15 82.34,-0.04 4.57,10.16 21.11,31.07 22.53,39.77l-23.1 0.21 -0.1 128.84 18.29 0.63 -0.22 26.58 -399.14 -0.1 0.19 -26.61 22.14 -1.28 -0.05 -139.53 -32.86 -0.27zm26.46 -288.16c-6.7,6.82 -65.2,37.58 -71.29,50.96 2.31,8.31 7.56,13.66 11.53,21.31 3.94,7.58 7.54,14.49 10.99,22.63 21.84,51.49 21.55,113.16 2.22,164.18 -16.28,42.98 -40.75,70.7 -70.28,95.5 -34.75,29.18 -25.57,-3.98 -32.49,67.5 21.23,11.97 46.98,24.42 65.52,41.89l19.19 18.71c25.16,12.05 58.32,50.54 73.06,76.43 20.98,36.87 30.44,71.01 31.73,119.37 22.22,14.04 94.85,23.87 128.07,23.6 15.44,-0.11 20.2,-3.23 36.37,16.92l131.42 104.13 10.35 -113.76 5.36 -54.64 13.75 -7.71c6.19,-6.86 22.16,-15.96 30.29,-22.48 10.61,-8.48 18.09,-13.25 26.9,-23.56 8.54,-9.96 18.61,-16.08 26.35,-26.48 39.97,-53.73 66.28,-88.61 83.35,-171.3 4.89,-20.74 5.32,-37.77 7.09,-58.97 -7,-10.02 -42.05,-25.16 -81.29,-83.49 -7.29,-10.83 -13.34,-21.33 -19.38,-33.49 -39.22,-78.93 -27.8,-115.36 -29.4,-183.5 -6.62,-0.75 -16.84,-8.73 -22.57,-12.64 -9.53,-3.69 -29.87,-19.25 -43.51,-26.3 -182.73,-94.22 -320.79,-7.44 -343.33,-4.81z"/>
   <path class="fil0" d="M1615.05 1186.63c-125.27,-11.21 -114.91,32.63 -114.9,-114.58 0.01,-31.6 -10.36,-86 23.46,-93.18 12.5,-2.67 213.67,-2.59 225.11,2.07 15.69,6.41 17.12,18.92 17.02,40.63l-0.04 112.95c0.05,20.2 2.65,33.95 -10.56,44.72 -19.36,15.81 -81.81,0.51 -104.29,8.13l4.88 9.78c0.61,0.19 1.28,0.38 1.93,0.55 1.19,0.31 6.33,0.86 8.07,1.11 12.15,1.85 28.62,7.16 30.32,19.8 -9.72,4.83 -75.54,2.12 -96.17,2.21 -5.23,0.02 -11.96,0.39 -16.99,0.14 -9.06,-0.42 -5.89,1.07 -11.85,-2.62 -4.51,-12.83 27.54,-19.78 44.51,-20.68l-0.5 -11.03zm-59.94 11.8c-10.08,27.66 -34.25,22.39 -65.75,22.39 -23.31,0 -65.17,5.33 -80.7,-7.96 -18.4,-15.75 -12.53,-49.49 -12.53,-78.34l-0.05 -180.28c-0.07,-31.86 10.74,-45.24 42.73,-45.4 97.05,-0.5 119.94,-13.48 119.23,57.47l-32.64 0.19c-3.05,-5.46 -1.19,-10.44 -7.21,-11.42l-87.17 1.09 -0.17 8.71c13.39,4.58 63.53,1.51 81.34,1.74l-7.82 5.08c-3.02,2.12 -4.66,3.51 -6.6,5.48 -14.53,14.75 -0.36,13.06 -42.06,12.46 -33.03,-0.47 -21.77,-1.43 -24.89,5.52 3.32,8.33 -4.47,5.58 12.59,6.47l44.36 -0.07c4.66,25.51 0.9,99.9 0.89,130.56 -0.05,78.99 13.59,59.72 66.45,66.31zm-34.94 -450.87c-119.14,36.95 -192.66,98.33 -240.12,213.96l-12.93 45.38c-11.54,58.81 -10.2,116.36 6.68,172.47 23.75,78.95 61.48,110.04 69.1,126.06 19.5,17.83 25.94,29.38 56.58,51.11 40.76,28.93 33.37,11.17 37.77,74.68l10.29 105.67 73.11 -61.09c4.64,-3.73 6.57,-4.53 10.83,-8.46 14.61,-13.43 28.43,-23.81 42.87,-36.43 12.8,-11.19 6.51,-9.3 27.83,-9.13 75.76,0.63 146.15,-26.04 204.16,-68.79 15.41,-11.34 28.69,-25.47 41.55,-34.75 11.45,-15.51 39.39,-44.03 47.61,-66 -2.63,-5.52 -26.84,-25.46 -33.71,-33.59 -31.87,-37.67 -52.96,-88.96 -54.09,-141.79 -1.34,-62.66 23.37,-121.68 65.06,-164.43 7.77,-7.98 10.68,-7.06 16.45,-15.79 -4.64,-10.77 -14.97,-23.16 -22.06,-31.79 -4.41,-5.35 -7.05,-9.49 -11.93,-14.49 -5.56,-5.71 -8.56,-7.48 -12.66,-14.07 -8.62,-4.38 -13.56,-12.12 -21.93,-18.6 -6.93,-5.35 -13.62,-11.02 -20.35,-16.53 -9.21,-3.75 -11.51,-6.84 -20.4,-12.41l-61.66 -29.64c-37.52,-13.26 -60.51,-14.98 -99.85,-20.84 -38.09,2.52 -60.7,1.1 -98.2,9.29z"/>
   <path class="fil1" d="M1070.72 574.68c9.73,-8.67 58.87,-31.88 73.89,-39.64 69.46,-35.87 24.49,-14.81 85.25,-14.83 15.68,0 39.93,-8 50.61,-3.59l108.9 58.22 -26.19 62.13 -39.36 -4.32 -0.77 172.03 -187.07 -0.08 -0.23 -172.14 -39.38 3.66 -25.65 -61.44zm101.47 -214.72c-36.75,8.61 -58.36,16.84 -90.53,32.88 -13.25,6.6 -25.35,15.18 -36.49,23.56 -6.31,4.77 -11.31,8.74 -17.51,13.75 -6.53,5.28 -9.56,10.15 -16.43,14.77 -4.02,7.13 -5.93,8.5 -12.04,14.38 -37.42,36.01 -60.93,107.76 -64.87,113.13 -0.23,9.83 -2.47,12.51 -4.19,19.65 -1.96,8.13 -2.44,12.39 -4.48,21.04 1.6,68.14 -9.82,104.57 29.4,183.5 6.04,12.16 12.09,22.66 19.38,33.49 39.24,58.33 74.29,73.47 81.29,83.49 31.16,11.86 20.52,19.21 25.61,51.61l0.78 9.27 8.54 93.38c11.04,-7.37 18.23,-14.28 28.38,-22.59 19.66,-16.08 67.25,-58.9 84.13,-70.34 10.5,-12.86 15.81,-9.58 36.35,-9.87 14.21,-0.21 26.65,-2.56 40.53,-3.55 47.46,-115.63 120.98,-177.01 240.12,-213.96 8.98,-44.29 15.33,-75.82 9.36,-124.51 -3.46,-28.29 -11.35,-57.12 -22.41,-83.03 -3.67,-8.58 -7.87,-14.59 -10.44,-23.01 -6.35,-11.4 -10.76,-18.82 -18.35,-29.82 -5.88,-8.5 -14.09,-20.05 -20.2,-26.92l-26.84 -27.04c-39.7,-25.8 -47.11,-41.54 -108.87,-61.58 -22.73,-7.38 -46.46,-12.35 -71.55,-14.1 -27.47,-1.92 -56.67,4.06 -78.67,2.42z"/>
   <path class="fil2" d="M1107.74 1893.79c-2.67,-12.09 -0.44,-242.8 -0.45,-276.32 -0.01,-65.61 -3.9,-50.24 156.2,-50.25 71.66,0 55.29,-9.8 55.29,151.17 0,46.44 -0.01,92.91 0,139.36 0.01,65.63 3.24,50.24 -156.2,50.24 -19.33,0 -50.67,4.71 -54.84,-14.2zm-227.3 -112.94c8.09,30.97 26.58,65.41 42.31,88.46l28.96 35.91c5.91,6.65 7.35,10.41 14.39,16.84 4.4,4.03 5.32,4.12 9.42,7.41l45.68 36.01c17.39,14.03 17.2,17.47 18.77,46.11 2.19,39.98 9.68,79.75 9.68,120.06 10.44,-0.86 30.82,-22.57 45.16,-33.62 7.03,-8.56 16.46,-14.38 24.57,-21.62l64.93 -55.33c7.92,-5.35 10.18,-3.52 21.56,-3.42 90.34,0.79 173.1,-36.35 234.12,-96.33 7.1,-6.98 17.49,-16.26 23.58,-24.49 28.22,-38.22 44.28,-59.42 60.2,-105.61 0.72,-2.08 2.31,-7.33 3.13,-9.05 2.48,-5.23 0.84,-4.16 4.95,-6.45 -4.29,-4.66 -36.2,-27.59 -54.4,-50.21 -34.26,-42.58 -55.51,-88.92 -62.32,-146.45 -2.88,-24.32 -5.01,-77.71 7.45,-96.31 0.76,-98.72 -10.05,-49.14 -59.96,-103.5l-9.96 -6.87c-6.82,-1.51 -6.94,-1.93 -12.28,-4.99l-2.36 -0.41c-5.48,11.94 -22.23,29.38 -30.73,37.19 -13.26,12.18 -23,19.53 -39.49,30.22 -11.06,7.16 -8.82,8.8 -10.03,24.34l-8.71 93.43c-12.72,-7.3 -90.13,-78.11 -96.97,-80.4 -7.52,-2.51 -39.6,0.76 -78.64,-10.39 -17.07,-4.89 -55.32,-24.73 -61.08,-25.55 36.86,127.51 -11.25,255.24 -114.5,330.2 -7.52,5.46 -12.82,6.8 -17.43,14.82z"/>
   <path class="fil3" d="M645.92 1453.34c52.49,-3.76 122.92,14.7 146.23,58.22 15.06,0.11 30.03,1.03 43.88,4.83 29.56,8.11 67.81,48.78 38.22,81.72 -1.32,-1.7 -0.26,0.67 -2.56,-4.66 -0.28,-0.67 -1.03,-2.77 -1.28,-3.49 -6.25,-18.16 -10.99,-38.3 -39.91,-39.97 16.53,10.06 29.16,11.86 33.76,34.31 4.49,21.9 -7.33,38.28 -20.63,45.79 -21.9,12.37 -75.73,4.01 -58.22,-58.54 -10.31,12.49 -7.34,17.39 -7.3,35.97 -9.25,0.02 -17.37,1.66 -23.81,-2.4 -8.37,-5.28 1.62,-6.06 -16.78,-7.17 -15.22,-0.95 -32.87,-0.3 -48.28,-0.17 -32.01,0.27 -64.65,0.63 -96.6,2.08 -0.42,-26.67 -7.4,-51.43 -23.58,-61.61 8.87,15.35 22.81,45.35 14.48,69.71l-9.63 0.52c-2.73,-3.58 -0.91,-0.16 -2.63,-5.6 -1.02,-3.21 -0.37,-1.11 -0.92,-3.93 -2.41,-12.43 -3.97,-41.95 -31.31,-45.18 32.27,5.37 40.27,70.86 -6.35,80.43 -45.49,9.35 -69.71,-46.04 -33.66,-76.55 -18.7,7.9 -18.74,21.92 -23.38,33.56 -1.63,4.07 -0.69,2.39 -2.67,4.91 -30.29,-7.6 -8.7,-44.43 2.71,-55.23 24.5,-23.18 47.98,-7.43 64.76,-15.05l-32.85 -5.36c21.94,-33.23 77.14,-62.76 138.31,-67.14zm-266.22 60.18l-14.83 -10.19c0,50.88 7.22,80.32 21.62,116.55 38.47,96.86 135.54,175.92 240.28,185.58 39.16,2.46 51.71,-3.32 65.55,13.84l109.85 91.31c0,-14.23 2.74,-16.23 2.16,-31.24l10.1 -111.01c20.24,-9.79 35.99,-24.61 52.8,-37.17 14.78,-19.69 20.67,-17.57 46.09,-53.01 54.1,-75.45 58.47,-148.27 47.27,-237.19 -8.93,-27.13 -13.94,-49.74 -27.46,-74.64 -11.17,-20.58 -28.37,-46.91 -41.22,-58.48 -5.86,10.01 -10.1,87.34 -11.2,105.43 -7.82,-2.8 -8.76,-4.96 -14.94,-10.8 -4.53,-4.26 -8.23,-6.74 -13.49,-9.99l-131.42 -104.13c-79.16,6.43 -154.73,-32.65 -165.15,-32.94 -1,31.35 -9.57,61.69 -21.41,86.93 -12.29,26.18 -24.12,42.35 -43.39,62.34 -4.98,5.16 -7.9,8.12 -13.04,13.4l-30.39 22.53c-7.53,4.55 -8.65,4.76 -9.94,15.74 -2.71,23.2 -2.61,80.27 -10.2,96.59 -8.86,-4.64 -35.89,-31.41 -47.64,-39.45z"/>
   <path class="fil4" d="M550.4 394.46c-6.51,-75.91 104.79,-83.86 111.24,-11.38 2.89,32.44 -20.83,58.18 -49.83,60.89 -31.79,3 -58.93,-20.58 -61.41,-49.51zm11.49 -126.28l93.71 0c19.09,0 18.58,14.4 0,14.41l-93.71 -0.01c-19.69,0 -20.29,-14.4 0,-14.4zm150.4 -22.68c3.18,-10.16 3.23,-8.29 15.15,-8.71 8.01,-0.27 16.6,0.04 24.27,1.64l15.62 33.32c8.36,-8.99 18.94,-8.94 32.45,-4.85l0.8 10.67 -29.92 1.76 22.74 55.5c-3.38,1.02 -4.75,1.2 -7.42,2.62l-5.58 4.16c4.52,9.64 8.82,20.14 12.95,30.45 4.78,11.9 5.7,25.69 19.69,21.27 3.9,-13.17 -15.05,-44.48 -19.36,-59.64 109.13,-11.53 76.6,138.92 -6.22,106.77 -15.74,-6.11 -21.92,-12.76 -29.05,-26.32 -6.79,-12.9 -8.67,-28.35 -3.79,-43.05 1.91,-5.75 6.74,-14.15 9.3,-17.3l15.27 -14.59 -18.12 -42.97c-0.25,-0.36 -0.86,-1.07 -1.06,-1.34 -0.2,-0.27 -0.69,-0.9 -1.09,-1.3 -11.63,14.11 -23.41,34.79 -33.75,50.35 -9.9,14.91 -27.73,46.72 -38.33,47.37 -16.05,-17.01 -4.7,-76.96 -76.89,-76.81 -83.22,0.17 -65.73,73.34 -84.1,72.13 -15.71,-1.05 2.48,-46.49 21.66,-64.23 2.85,-2.63 5.63,-4.6 8.19,-8.43 11.16,-16.65 -13.49,-13.6 61.48,-13.93 27.52,-0.13 21.33,7.37 46.54,-0.72 21.78,-6.99 70.25,-19.32 86.34,-29.79l-6.95 -17.62c-27.25,-2.44 -18.63,4.93 -30.82,-6.41zm-196.05 323.87c22.54,-2.63 160.6,-89.41 343.33,4.81 38.28,-37.9 54.2,-47.02 80.64,-104.11 21.31,-46.02 29.26,-103.98 19.58,-158.74 -14.04,-79.48 -65.32,-151.45 -133.06,-188.89 -8.51,-4.71 -25.25,-11.57 -31.09,-16.3 -79.32,-32.75 -172.14,-24.26 -245.33,19.64 -8.11,4.87 -11.03,7.27 -18.7,12.55 -83.48,57.48 -129.21,169.83 -106.95,278.03 8.38,40.74 33.44,92.18 60.91,121.7 10.36,11.13 21.66,19.68 30.67,31.31z"/>
   <path class="fil5" d="M1888.23 635.92l10.67 0.13 1.16 22.13 -12.01 0.34 0.18 -22.6zm-205.41 0.49l11.42 -0.23 0.69 21.33 -12.17 0.59 0.06 -21.69zm26.04 -62.8l165.41 -0.01c1.86,-25.11 -1.15,-51.81 0.32,-76 1.64,-27.07 30.22,-36.52 44.94,-19.07 10.59,12.56 6.69,49.7 6.68,69.71 0,22.03 1.94,55.12 -0.66,75.78l-268.92 0.3c-2.15,-22.78 -0.48,-53.05 -0.48,-76.08 0,-20.37 -4.51,-55.71 6.88,-68.98 14.9,-17.36 42.85,-8.73 44.68,16.13 1.68,22.79 -2.94,57.49 1.15,78.22zm-13.38 -114.27c9.83,-94.07 181.22,-93.99 191.65,0 -14.11,11.19 -23.76,14.87 -24.55,40.77 -0.6,19.76 1.21,41.14 -0.3,61.51l-141.31 -0.02c-3.15,-17.09 -0.2,-45.15 -1.04,-63.9 -1.12,-25.36 -10.79,-26.12 -24.45,-38.36zm-148.05 -43.25c-22.13,66.49 -36.33,111.03 -14.42,187.21 26.41,91.8 74.27,116.68 85.36,134.96 39.34,5.86 62.33,7.58 99.85,20.84l61.66 29.64c8.89,5.57 11.19,8.66 20.4,12.41 41.82,-1.76 75.63,-9.8 110.23,-26.37 16.95,-8.12 30.9,-16.31 43.57,-26.12 14.76,-11.4 25.37,-22.47 37.45,-31.92 16.76,-13.69 48.87,-68.88 56.81,-92.49 91.04,-270.82 -212.89,-463.99 -415.52,-312.18 -30.51,22.84 -52.38,45.94 -72.15,79.22 -4.65,7.81 -11.7,16.46 -13.24,24.8z"/>
   <path class="fil4" d="M1696 1512.13c33.94,-16.59 28.56,-19.42 29.05,-38.34l11.8 -0.09c4.77,64.28 -24.28,69.3 -4.98,100.65l71.76 122.41c-15,10.58 -85.17,28.28 -107.61,28.41 -25.36,0.14 -91.3,-16.44 -108.62,-28.41 16.34,-32.24 38.14,-67.17 57.53,-99.13 17.24,-28.43 24.09,-34.48 17.62,-57.32 -7.55,-26.6 -10.81,-35.44 -9.05,-66.35l12.06 -0.26 0.58 21.23c3.64,3.05 26.85,16.05 29.86,17.2zm-273.41 -29.37c-12.46,18.6 -10.33,71.99 -7.45,96.31 6.81,57.53 28.06,103.87 62.32,146.45 18.2,22.62 50.11,45.55 54.4,50.21l21.36 13.42 6.78 75.81c0.72,1.88 3.42,30.5 3.65,33.86 1.96,29.14 -7.33,27.73 32.82,-3.64l22.32 -18.21c3.67,-5.51 27.08,-25.3 34.4,-30.78 15.26,-11.42 16.11,-20.83 40.24,-20.99 38.08,-0.27 72.46,-8 104.71,-21.5 162.75,-68.12 219.06,-268.62 124.07,-410.06 -11.84,-17.63 -45.31,-56.9 -61,-63.72 -5.43,1.55 -2.58,-1.04 -10.8,9.44 -46.8,59.68 -125.04,104.93 -200.33,119.35 -15.91,3.05 -75.07,5.44 -79.64,7.08l-92.01 75.92c-7.99,6.79 -37.17,34.06 -46.22,37.95l-9.62 -96.9z"/>
   <path class="fil1" d="M200.13 1221.53c8.09,-21.57 -0.31,-33.66 32.59,-33.54 28.06,0.09 29.73,8.07 29.55,35.41 -0.09,13.37 1.6,54.23 -1.16,64.37 -5.78,21.21 -47.96,11.07 -49.89,9.96 -10.75,-6.17 -5.49,-15.01 -9.52,-24.43 -4.48,-10.49 -13.7,-7.17 -17.49,-0.12 -3.56,6.62 -5.57,19.28 -19.58,11.51 -7.96,-4.43 -6.06,-16.71 -5.98,-25.16 0.64,-70.13 -13.11,-150.38 75.43,-186.14 65.39,-26.43 143.13,13.88 157.91,84.39 3.14,14.99 3.36,114.27 -0.08,126.72l-15.66 1.28c-5.81,-7.6 -11.02,-27.23 -22.2,-15.87 -9.06,9.19 0.98,23.56 -14.49,29.01 -9.46,3.32 -32.02,3.28 -39.48,-1.2 -10.06,-6.04 -8.66,-20.51 -8.59,-33.4 0.11,-20.91 -7.92,-65.38 11.31,-74.08 7,-3.15 29.88,-3.13 37.28,0.29 13.59,6.27 7.49,17.83 13.52,30.68l13.61 -0.36c16.17,-39.63 -8.09,-131.31 -91.26,-130.74 -66.47,0.44 -102.34,60.21 -91.65,129.19 7.3,3.53 6.46,3.22 15.83,2.23zm-37.09 185.83c34.08,13.11 48.74,23.7 91.24,27.71 28.69,2.71 27.48,-3.91 45.42,12.12 9.33,8.33 26.98,21.23 32.21,28.51 6.18,5.08 9.06,6.45 15.53,12.62 6.77,6.47 10.29,7.94 17.43,15.01l14.83 10.19 10.06 -107.05c35.26,-25.61 44.14,-28.79 72.04,-64.5 8.71,-11.15 18.39,-26.29 25.09,-42.16 7.89,-18.69 10.68,-36.08 16.6,-52.96l3.13 -19.92c0.58,-41.1 -0.23,-65.46 -13.71,-102.76 -5.4,-14.94 -11.09,-25.91 -18.86,-38.75l-22.42 -33.36 -19.19 -18.71c-18.54,-17.47 -44.29,-29.92 -65.52,-41.89l-38.62 -12.81c-22.64,-2.91 -48.64,-3.27 -69.15,-6.24 -16.6,3.03 -26.6,3.45 -41.85,7.34 -140.23,35.67 -215.68,194.26 -148.78,328.58 19.69,39.54 44.48,64.5 78.71,89.49 2.4,1.76 4.94,3.55 7.15,4.94l8.66 4.6z"/>
   <path class="fil6" d="M2086.68 1072.61c9.77,0.31 40.37,-3.11 38.25,22.86 -1.94,23.83 -24.11,14.97 -42.42,21.31 3.15,18.42 15.35,3.84 31.93,12.54 8.17,4.31 14.29,17.13 8.02,27.86 -10.59,18.13 -54.79,10.79 -78.06,10.78 -20.1,0 -70.93,5.25 -81.94,-6.77 -9.36,-10.22 -5.32,-25.28 3.3,-30.84 16.58,-10.67 29.9,5.25 33.18,-13.46 -13.9,-5.04 -37.55,3.76 -41.49,-18.73 -4.36,-24.82 16.8,-24.9 37.3,-25.55 -3.63,-15.86 -17.03,-11.87 -20.17,-41.56 -1.72,-16.25 2.2,-11.09 -6.72,-21.79 -21.53,-25.81 0.37,-52.91 25.64,-49.62 13.04,1.7 13.12,8.15 20.63,9.81 3.35,0.73 18.02,-2.71 25.45,-2.8 9.88,-0.14 18.78,2.92 24.62,3.01 10.58,0.16 7.13,-6.05 19.77,-9.3 28.88,-7.42 48.79,23.85 31.76,46.06 -9.44,12.3 -7.09,2.86 -8.68,22.3 -2.52,30.89 -16.9,28.07 -20.37,43.89zm-197.47 -175.98c-5.77,8.73 -8.68,7.81 -16.45,15.79 -41.69,42.75 -66.4,101.77 -65.06,164.43 1.13,52.83 22.22,104.12 54.09,141.79 6.87,8.13 31.08,28.07 33.71,33.59 3.76,1.14 22.65,12.59 24.91,16.05 3.82,5.86 4.25,28.43 4.72,36.83 -1.89,13.48 -1.26,20.22 1.53,30.51l5.05 37.24 77.79 -64.21c27.96,-26.1 43.21,0.97 112.33,-29.39 48.41,-21.25 87.33,-55.93 111.11,-102.78 8.35,-16.44 13.71,-38.36 20.49,-51 5.85,-10.63 9.89,-61.99 6.22,-78.87l-8.09 -35.17c-19.99,-78.25 -80.69,-132.85 -155.15,-157.2 -64.49,-21.09 -156.34,-4.14 -207.2,42.39z"/>
   <path class="fil5" d="M131.98 735.73c2.81,-46.3 -20.58,-112.63 93.56,-112.65 31.36,0 62.61,6.89 79.18,23.75 21.4,21.75 12.03,54.23 14.34,88.89 94.94,14.54 62.44,79.16 -93.55,79.06 -41.73,-0.02 -87.71,-2.65 -121.41,-20.14 -50.43,-26.18 -19.49,-51.92 27.88,-58.91zm11.84 198.78c20.78,6.31 37.87,11.65 60.66,13.25 31.02,2.2 26.34,-4.27 54.05,23.37l0.62 1.27c20.51,2.97 46.51,3.33 69.15,6.24 -0.73,-7.97 1.81,-47.07 4.12,-54.84 4.37,-14.63 167.73,-87.65 93.59,-290.56 -9.36,-16.38 -16.69,-30.72 -26.4,-42.83 -6.14,-7.67 -9.15,-12.33 -14.98,-18.71 -5.83,-6.39 -11.77,-10.29 -17.14,-16.25 -10.72,-13.48 -61.07,-36.98 -79.79,-42.97 -32.34,-10.35 -73.48,-12.58 -110.11,-4.95 -173.12,36.09 -238.82,252.7 -110.11,378.95 12.72,12.48 57.78,45.8 76.34,48.03z"/>
   <path class="fil7" d="M1263.46 253.42l168.24 0.33c6.42,7.63 28.54,49.85 30.18,58.13l-228.98 -0.65 30.56 -57.81zm0.52 -146.41l174.26 0.4 0.1 131.48 -175.58 0.06 1.22 -131.94zm-91.78 252.95c22,1.64 51.2,-4.34 78.67,-2.42 25.09,1.75 48.82,6.72 71.55,14.1 61.76,20.04 69.17,35.78 108.87,61.58 8.48,-6.13 23.82,-11.61 33.7,-17.47 12.79,-7.6 18.89,-12.07 29.33,-21.12 19.21,-16.63 32.15,-30.34 47.71,-55.62 32.34,-52.5 36.95,-103.04 25.03,-170.4 1.46,-17.47 -31.75,-69.98 -40.96,-82.39 -18.14,-24.46 -41.72,-42.77 -69.34,-58.01 -36.18,-19.96 -96.78,-35.93 -139.24,-24.23 -22.27,6.14 -30.53,3.75 -62.05,19.65 -14.76,7.43 -26.38,13.79 -39.05,23.41 -81.29,61.67 -113.18,179.36 -66.67,271.36 6.44,12.71 14.44,32.39 22.45,41.56z"/>
   <path class="fil8" d="M1177 1377.22c-8.31,-10.07 -4.19,-32 -4.21,-45.67 -0.03,-17 -5.58,-35 13.87,-36.03 22.59,-1.2 17.79,14.07 17.69,33.62 -0.08,16.16 9.24,64.46 -27.35,48.08zm-109.03 -180.24c0,-23.74 6.6,-36.34 29.74,-37.03l10.32 17.15c3.15,6.38 4.66,10.48 9.03,14.36l7.47 -7.98c-1.76,-7.83 -4.91,-12.64 -2.25,-21.84 9.6,-2.62 8.12,-3.04 17.52,0.47 4.42,16.52 -9.57,18.03 6.51,29.77l16.28 -31.22c26.98,-0.19 25.9,23.39 30.69,48.81 7.57,40.22 24.75,86.15 -15.02,72.76 -6.8,-20.47 -9.27,-49.53 -15.49,-72.65l-0.48 148.39c0,20.2 -1.81,31.24 -23.73,31.24 -36.58,0 -39.27,-0.58 -39.1,-40.84 0.1,-20.77 0.06,-41.57 0,-62.34 -39.64,-5.12 -31.49,-18.98 -31.49,-89.05zm55.83 -117.73c8.54,-4.97 19.59,-1.07 25.32,3.84 6.08,5.19 7.04,14.33 10.17,23.56 4.92,14.55 3.29,10.17 -4.72,22.22 -4.91,7.39 -7.97,14.93 -15.53,18.33 -18.16,8.14 -32.81,-15.69 -37.45,-26.44 -4.23,-9.82 -1.34,-6.36 0.4,-12.51 8.85,-31.31 -0.45,-16 21.81,-29zm-229.64 196.49c1.75,26.5 28.37,63.16 40.68,79.31 8.54,11.21 20.95,21.27 29.83,30.23 9.78,9.89 21.75,16.25 32.42,25.77 13.35,4.07 25.78,15.01 60.87,25.19 17.02,4.94 74,8.89 78.16,10.82 5.06,2.35 7.75,5.59 11.94,9.55l58.74 49.41c7.79,6.64 16.97,15.98 25.59,20.54l10.02 -112.72c13.97,-9.55 25.14,-14.99 36.82,-25.7l31.46 -30.93c4.61,-5.6 7.82,-9.43 10.69,-15.43 -7.04,-16.89 -49.31,-54.07 -69.83,-147.38 -20.58,-93.57 3.01,-128.56 11.84,-187.36 -12.79,-11.61 -39.3,-25.78 -60.22,-32.1 -16.88,11.44 -64.47,54.26 -84.13,70.34 -10.15,8.31 -17.34,15.22 -28.38,22.59l-8.54 -93.38c-7.33,9.12 -8.34,33.06 -11.99,45.93 -24.74,87.33 -94.29,181.58 -174.1,220.22l-1.87 35.1z"/>
   <path class="fil9" d="M626.01 998.32c-0.61,-14.4 -0.18,-29.53 -0.19,-44.01 0,-41.62 -9.55,-37.99 40.69,-36.83l0.12 82.02 -40.62 -1.18zm173.01 -107.2l31.98 0 2.76 0.03 -0.14 34.6 -34.54 0.05 -0.06 -9.94 0 -9.61 0 -15.13zm-75.95 0.11l34.7 -0.13 -0.07 34.75 -34.53 -0.41 -0.1 -34.21zm-163.28 0.02l34.68 -0.16 -0.07 34.77 -34.5 -0.47 -0.11 -34.14zm-70.01 -33.72l32.86 0.27 0.05 139.53 -22.14 1.28 -0.19 26.61 399.14 0.1 0.22 -26.58 -18.29 -0.63 0.1 -128.84 23.1 -0.21c-1.42,-8.7 -17.96,-29.61 -22.53,-39.77 -27.43,0.19 -54.9,0.04 -82.34,0.04 -13.22,0 -28.04,0.67 -41.04,0.15 -12.71,-0.48 -19.21,-6.97 -27.32,-14.53l-0.38 -51.97 -34.63 0.11 0.27 26.43c-19.96,-9.99 -38.16,-29.23 -57.88,-40.42 -8.26,3.42 -145.11,102.93 -149,108.43z"/>
   <path class="fil9" d="M1268.81 529.24c-12.06,30.72 -62.58,27.47 -77.54,-0.1 32.62,8.2 45.55,8.23 77.54,0.1zm-198.08 45.44l25.65 61.44 39.38 -3.66 0.23 172.14 187.07 0.08 0.77 -172.03 39.36 4.32 26.19 -62.13 -108.9 -58.22c-10.68,-4.41 -34.93,3.59 -50.61,3.59 -60.76,0.02 -15.79,-21.04 -85.25,14.83 -15.02,7.76 -64.16,30.97 -73.89,39.64z"/>
   <path class="fil9" d="M513.03 1570.67c32.83,-14.62 49.5,33.53 20.71,45.19 -30.75,12.44 -49.54,-32.34 -20.71,-45.19zm299.01 0.67c30.04,-17.72 49.09,31.69 21.92,44.31 -29.35,13.62 -51.15,-27.07 -21.92,-44.31zm-179.14 -101.5c27.59,-4.58 59.48,-1.89 83.98,7.03 20.07,7.31 46.02,25.35 53.69,37.63l-138.63 -0.57 0.96 -44.09zm-88.33 41.89c8.34,-15.03 44.59,-36.64 68.99,-37.04l0.08 36.41c-14.51,3.72 -51.87,0.74 -69.07,0.63zm-36.96 8.75l32.85 5.36c-16.78,7.62 -40.26,-8.13 -64.76,15.05 -11.41,10.8 -33,47.63 -2.71,55.23 1.98,-2.52 1.04,-0.84 2.67,-4.91 4.64,-11.64 4.68,-25.66 23.38,-33.56 -36.05,30.51 -11.83,85.9 33.66,76.55 46.62,-9.57 38.62,-75.06 6.35,-80.43 27.34,3.23 28.9,32.75 31.31,45.18 0.55,2.82 -0.1,0.72 0.92,3.93 1.72,5.44 -0.1,2.02 2.63,5.6l9.63 -0.52c8.33,-24.36 -5.61,-54.36 -14.48,-69.71 16.18,10.18 23.16,34.94 23.58,61.61 31.95,-1.45 64.59,-1.81 96.6,-2.08 15.41,-0.13 33.06,-0.78 48.28,0.17 18.4,1.11 8.41,1.89 16.78,7.17 6.44,4.06 14.56,2.42 23.81,2.4 -0.04,-18.58 -3.01,-23.48 7.3,-35.97 -17.51,62.55 36.32,70.91 58.22,58.54 13.3,-7.51 25.12,-23.89 20.63,-45.79 -4.6,-22.45 -17.23,-24.25 -33.76,-34.31 28.92,1.67 33.66,21.81 39.91,39.97 0.25,0.72 1,2.82 1.28,3.49 2.3,5.33 1.24,2.96 2.56,4.66 29.59,-32.94 -8.66,-73.61 -38.22,-81.72 -13.85,-3.8 -28.82,-4.72 -43.88,-4.83 -23.31,-43.52 -93.74,-61.98 -146.23,-58.22 -61.17,4.38 -116.37,33.91 -138.31,67.14z"/>
   <polygon class="fil2" points="1128.34,1843.17 1297.45,1843.22 1297.44,1632.06 1128.64,1632 "/>
   <path class="fil9" d="M1191.98 1874.94c0.91,-9.24 6.47,-9.28 16.26,-9.28 13.48,0 26.7,-2.2 25.9,11.13 -0.73,12.01 -14.8,10.16 -25.9,10.16 -9.11,0 -17.25,-2.01 -16.26,-12.01zm-64.09 -30.55c-3.69,-10.96 -3.69,-202.6 -0.14,-214.61l170.45 1.05c3.69,10.96 3.69,202.6 -0.01,214.61l-170.3 -1.05zm80.35 -234.83c-23.93,0 -21.56,-21.29 0.01,-21.29 35.67,0 37.83,21.29 -0.01,21.29zm-100.49 284.23c4.17,18.91 35.51,14.2 54.84,14.2 159.44,0 156.21,15.39 156.2,-50.24 -0.01,-46.45 0,-92.92 0,-139.36 0,-160.97 16.37,-151.17 -55.29,-151.17 -160.1,0.01 -156.21,-15.36 -156.2,50.25 0.01,33.52 -2.22,264.23 0.45,276.32z"/>
   <path class="fil9" d="M1447.68 1128.56c15.18,-8.75 26.34,13.86 13.86,21.82 -17.27,11.02 -28.38,-13.46 -13.86,-21.82zm5.89 -104.04l-0.01 11.3 -19.05 -0.59 -3.35 -8.84c6.95,-3.08 12.92,-1.87 22.41,-1.87zm101.54 173.9c-52.86,-6.59 -66.5,12.68 -66.45,-66.31 0.01,-30.66 3.77,-105.05 -0.89,-130.56l-44.36 0.07c-17.06,-0.89 -9.27,1.86 -12.59,-6.47 3.12,-6.95 -8.14,-5.99 24.89,-5.52 41.7,0.6 27.53,2.29 42.06,-12.46 1.94,-1.97 3.58,-3.36 6.6,-5.48l7.82 -5.08c-17.81,-0.23 -67.95,2.84 -81.34,-1.74l0.17 -8.71 87.17 -1.09c6.02,0.98 4.16,5.96 7.21,11.42l32.64 -0.19c0.71,-70.95 -22.18,-57.97 -119.23,-57.47 -31.99,0.16 -42.8,13.54 -42.73,45.4l0.05 180.28c0,28.85 -5.87,62.59 12.53,78.34 15.53,13.29 57.39,7.96 80.7,7.96 31.5,0 55.67,5.27 65.75,-22.39z"/>
   <path class="fil9" d="M1562.15 1162.11c12.8,2.45 11.56,13.75 -2.64,12.6 -3.91,-8.3 -4.29,-7.67 2.64,-12.6zm166.26 -146.54c5.81,5.9 2.98,55.28 2.98,66.09 -0.01,25.62 7.17,65.81 -7.07,69.25l-124.43 0.7c-78.23,-0.01 -64.96,18.62 -64.97,-69.95 -0.01,-84.22 -13.55,-68.72 62.56,-68.72 16.32,0 124.65,-3.02 130.93,2.63zm-113.36 171.06l0.5 11.03c-16.97,0.9 -49.02,7.85 -44.51,20.68 5.96,3.69 2.79,2.2 11.85,2.62 5.03,0.25 11.76,-0.12 16.99,-0.14 20.63,-0.09 86.45,2.62 96.17,-2.21 -1.7,-12.64 -18.17,-17.95 -30.32,-19.8 -1.74,-0.25 -6.88,-0.8 -8.07,-1.11 -0.65,-0.17 -1.32,-0.36 -1.93,-0.55l-4.88 -9.78c22.48,-7.62 84.93,7.68 104.29,-8.13 13.21,-10.77 10.61,-24.52 10.56,-44.72l0.04 -112.95c0.1,-21.71 -1.33,-34.22 -17.02,-40.63 -11.44,-4.66 -212.61,-4.74 -225.11,-2.07 -33.82,7.18 -23.45,61.58 -23.46,93.18 -0.01,147.21 -10.37,103.37 114.9,114.58z"/>
   <path class="fil10" d="M997.08 1411.05c-5.29,5.57 -13.27,10.04 -19.07,14.65 -6.92,5.5 -11.55,9.62 -17.42,15.29 11.2,88.92 6.83,161.74 -47.27,237.19 -25.42,35.44 -31.31,33.32 -46.09,53.01l11.97 47.27 1.24 2.39c4.61,-8.02 9.91,-9.36 17.43,-14.82 103.25,-74.96 151.36,-202.69 114.5,-330.2 5.76,0.82 44.01,20.66 61.08,25.55 39.04,11.15 71.12,7.88 78.64,10.39 6.84,2.29 84.25,73.1 96.97,80.4l8.71 -93.43c1.21,-15.54 -1.03,-17.18 10.03,-24.34 16.49,-10.69 26.23,-18.04 39.49,-30.22 8.5,-7.81 25.25,-25.25 30.73,-37.19l-27.34 -9.78 -31.46 30.93c-11.68,10.71 -22.85,16.15 -36.82,25.7l-10.02 112.72c-8.62,-4.56 -17.8,-13.9 -25.59,-20.54l-58.74 -49.41c-4.19,-3.96 -6.88,-7.2 -11.94,-9.55 -4.16,-1.93 -61.14,-5.88 -78.16,-10.82 -35.09,-10.18 -47.52,-21.12 -60.87,-25.19z"/>
   <path class="fil9" d="M203.88 804.62c-12.69,-10.54 -6.91,-14.3 -14.41,-22.41 -9.42,2.96 -17.32,9.85 -25.83,11.28 -1.53,-36.39 50.19,-49.93 61.85,-50.03 13.92,-0.13 12.2,2.33 22.25,6 17.48,6.38 42.79,14.72 41.57,43.36 -8.94,-0.72 -13.85,-8.24 -28.69,-10.75 -1.39,11.06 -2.99,19.56 -13.49,22.47 -5.41,-14.28 -2.94,-19.56 -13.86,-42.93l-8.56 -12.36c-4.99,14.95 -11.69,23.45 -15.9,41.91 -0.4,1.74 -1.22,6.13 -1.69,7.48 -4.97,14.15 5.22,-10.44 -1.4,3.17l-1.84 2.81zm99.09 -56.95c-1.26,0.86 -1.48,1.79 -4.53,2.82 -11.52,3.9 -40.88,-1.66 -50.8,-5.63 9.66,-4.66 43.98,-12.39 55.33,2.81zm-152.41 0c8.68,-11.34 24.61,-9.72 39.01,-7.3 10.99,1.84 9.52,1.45 15.49,5.75 -10.53,1.87 -37.06,7.96 -48.18,5 -12.01,-3.21 -1.47,0.1 -6.32,-3.45zm62.28 -7.09c-0.52,-11.57 0.45,-13.65 4.07,-23.62l18.73 -0.07 3.72 23.27 -26.52 0.42zm26.57 -26.25c20.4,-7.47 39.61,-21.59 63.03,-23.66 8.61,15.73 7.19,33.91 2.3,52.28 -28.59,-12.68 -31.22,-7.2 -61.28,-3.06l-4.05 -25.56zm-93.19 28.75c-3.09,-12.24 -5.02,-18.99 -3.37,-32.93 4.34,-36.62 18.56,-13.79 68.63,4.16l-2.96 25.76c-26.68,-4.17 -38.75,-10.2 -62.3,3.01zm-14.24 -7.35c-47.37,6.99 -78.31,32.73 -27.88,58.91 33.7,17.49 79.68,20.12 121.41,20.14 155.99,0.1 188.49,-64.52 93.55,-79.06 -2.31,-34.66 7.06,-67.14 -14.34,-88.89 -16.57,-16.86 -47.82,-23.75 -79.18,-23.75 -114.14,0.02 -90.75,66.35 -93.56,112.65z"/>
   <path class="fil9" d="M200.13 1221.53c-9.37,0.99 -8.53,1.3 -15.83,-2.23 -10.69,-68.98 25.18,-128.75 91.65,-129.19 83.17,-0.57 107.43,91.11 91.26,130.74l-13.61 0.36c-6.03,-12.85 0.07,-24.41 -13.52,-30.68 -7.4,-3.42 -30.28,-3.44 -37.28,-0.29 -19.23,8.7 -11.2,53.17 -11.31,74.08 -0.07,12.89 -1.47,27.36 8.59,33.4 7.46,4.48 30.02,4.52 39.48,1.2 15.47,-5.45 5.43,-19.82 14.49,-29.01 11.18,-11.36 16.39,8.27 22.2,15.87l15.66 -1.28c3.44,-12.45 3.22,-111.73 0.08,-126.72 -14.78,-70.51 -92.52,-110.82 -157.91,-84.39 -88.54,35.76 -74.79,116.01 -75.43,186.14 -0.08,8.45 -1.98,20.73 5.98,25.16 14.01,7.77 16.02,-4.89 19.58,-11.51 3.79,-7.05 13.01,-10.37 17.49,0.12 4.03,9.42 -1.23,18.26 9.52,24.43 1.93,1.11 44.11,11.25 49.89,-9.96 2.76,-10.14 1.07,-51 1.16,-64.37 0.18,-27.34 -1.49,-35.32 -29.55,-35.41 -32.9,-0.12 -24.5,11.97 -32.59,33.54z"/>
   <path class="fil0" d="M1728.41 1015.56c-6.28,-5.65 -114.61,-2.63 -130.93,-2.63 -76.11,0 -62.57,-15.5 -62.56,68.72 0.01,88.57 -13.26,69.94 64.97,69.95l124.43 -0.7c14.24,-3.44 7.06,-43.63 7.07,-69.25 0,-10.81 2.83,-60.19 -2.98,-66.09z"/>
   <path class="fil9" d="M1587.4 1696.76c17.32,11.97 83.26,28.55 108.62,28.41 22.44,-0.13 92.61,-17.83 107.61,-28.41l-71.76 -122.41c-19.3,-31.35 9.75,-36.37 4.98,-100.65l-11.8 0.09c-0.49,18.92 4.89,21.75 -29.05,38.34 -3.01,-1.15 -26.22,-14.15 -29.86,-17.2l-0.58 -21.23 -12.06 0.26c-1.76,30.91 1.5,39.75 9.05,66.35 6.47,22.84 -0.38,28.89 -17.62,57.32 -19.39,31.96 -41.19,66.89 -57.53,99.13z"/>
   <path class="fil9" d="M1695.48 459.34c13.66,12.24 23.33,13 24.45,38.36 0.84,18.75 -2.11,46.81 1.04,63.9l141.31 0.02c1.51,-20.37 -0.3,-41.75 0.3,-61.51 0.79,-25.9 10.44,-29.58 24.55,-40.77 -10.43,-93.99 -181.82,-94.07 -191.65,0z"/>
   <path class="fil9" d="M1708.86 573.61c-4.09,-20.73 0.53,-55.43 -1.15,-78.22 -1.83,-24.86 -29.78,-33.49 -44.68,-16.13 -11.39,13.27 -6.88,48.61 -6.88,68.98 0,23.03 -1.67,53.3 0.48,76.08l268.92 -0.3c2.6,-20.66 0.66,-53.75 0.66,-75.78 0.01,-20.01 3.91,-57.15 -6.68,-69.71 -14.72,-17.45 -43.3,-8 -44.94,19.07 -1.47,24.19 1.54,50.89 -0.32,76l-165.41 0.01z"/>
   <path class="fil9" d="M2110.07 1138.95c2.67,6.38 3.98,21.75 -7.05,16.44 -3.97,-1.9 -5.7,-5.88 -4.16,-11.11 1.87,-6.37 4.16,-5.14 11.21,-5.33zm-138.16 0.12c14.87,0.59 12.85,12.1 8.23,15.39 -9.57,6.85 -12.53,-5.63 -8.23,-15.39zm46.68 -9.36c-11.93,-42.8 35.41,-63.16 44.83,-23.62 4.12,17.3 -1.68,34.81 -13.23,41.57 -14.24,8.36 -27.94,-4.81 -31.6,-17.95zm88.28 -44.64c8.9,7.6 6.55,18.49 -1.96,17.2 -7.54,-1.16 -10.98,-13.02 1.96,-17.2zm-136.62 13.41c-5.62,-11.92 7.78,-18.05 11.66,-9.02 5.58,12.95 -8.36,16.02 -11.66,9.02zm101.6 -60.07c-9.75,34.63 -70.99,23.56 -62.13,-13.06 8.82,-36.43 72.38,-23.35 62.13,13.06zm10.99 -32.92c8.61,6.09 8.15,13.48 0,19.8 -9.49,-6.55 -6.25,-14.32 0,-19.8zm-81.91 -0.06c5.36,7.78 5.42,12.45 -0.44,19.92 -10.9,-3.19 -9.72,-16.27 0.44,-19.92zm98.73 -9.01c-4.39,-4.2 -10.63,-11.86 -13.83,-15.67 7.56,-10.02 27.1,3.51 13.83,15.67zm-117.74 -1.26c-9.44,-14.33 3.25,-19.11 14.62,-16.69 -3.48,6.61 -2.88,3.86 -7.62,9.25 -0.67,0.76 -2.87,3.68 -3.17,4.02 -2.46,2.76 -1.62,1.74 -3.83,3.42zm17.02 121.74c-3.28,18.71 -16.6,2.79 -33.18,13.46 -8.62,5.56 -12.66,20.62 -3.3,30.84 11.01,12.02 61.84,6.77 81.94,6.77 23.27,0.01 67.47,7.35 78.06,-10.78 6.27,-10.73 0.15,-23.55 -8.02,-27.86 -16.58,-8.7 -28.78,5.88 -31.93,-12.54 18.31,-6.34 40.48,2.52 42.42,-21.31 2.12,-25.97 -28.48,-22.55 -38.25,-22.86 3.47,-15.82 17.85,-13 20.37,-43.89 1.59,-19.44 -0.76,-10 8.68,-22.3 17.03,-22.21 -2.88,-53.48 -31.76,-46.06 -12.64,3.25 -9.19,9.46 -19.77,9.3 -5.84,-0.09 -14.74,-3.15 -24.62,-3.01 -7.43,0.09 -22.1,3.53 -25.45,2.8 -7.51,-1.66 -7.59,-8.11 -20.63,-9.81 -25.27,-3.29 -47.17,23.81 -25.64,49.62 8.92,10.7 5,5.54 6.72,21.79 3.14,29.69 16.54,25.7 20.17,41.56 -20.5,0.65 -41.66,0.73 -37.3,25.55 3.94,22.49 27.59,13.69 41.49,18.73z"/>
   <path class="fil11" d="M503.49 1246.85c-5.92,16.88 -8.71,34.27 -16.6,52.96 -6.7,15.87 -16.38,31.01 -25.09,42.16 -27.9,35.71 -36.78,38.89 -72.04,64.5l-10.06 107.05c11.75,8.04 38.78,34.81 47.64,39.45 7.59,-16.32 7.49,-73.39 10.2,-96.59 1.29,-10.98 2.41,-11.19 9.94,-15.74l30.39 -22.53c5.14,-5.28 8.06,-8.24 13.04,-13.4 19.27,-19.99 31.1,-36.16 43.39,-62.34 11.84,-25.24 20.41,-55.58 21.41,-86.93 10.42,0.29 85.99,39.37 165.15,32.94 -16.17,-20.15 -20.93,-17.03 -36.37,-16.92 -33.22,0.27 -105.85,-9.56 -128.07,-23.6l-28.3 -9.49 -23.04 13.58 -1.59 -5.1z"/>
   <path class="fil9" d="M1067.96 1196.98c0,70.07 -8.15,83.93 31.49,89.05 0.06,20.77 0.1,41.57 0,62.34 -0.17,40.26 2.52,40.84 39.1,40.84 21.92,0 23.73,-11.04 23.73,-31.24l0.48 -148.39c6.22,23.12 8.69,52.18 15.49,72.65 39.77,13.39 22.59,-32.54 15.02,-72.76 -4.79,-25.42 -3.71,-49 -30.69,-48.81l-16.28 31.22c-16.08,-11.74 -2.09,-13.25 -6.51,-29.77 -9.4,-3.51 -7.92,-3.09 -17.52,-0.47 -2.66,9.2 0.49,14.01 2.25,21.84l-7.47 7.98c-4.37,-3.88 -5.88,-7.98 -9.03,-14.36l-10.32 -17.15c-23.14,0.69 -29.74,13.29 -29.74,37.03z"/>
   <path class="fil9" d="M743.71 289.31l-49.67 73.94c-4.67,-6.29 -9.25,-20.22 -13.54,-27.27 -5.94,-9.72 -10.45,-14.22 -16.86,-21.5l80.07 -25.17zm-16.27 -52.52c-11.92,0.42 -11.97,-1.45 -15.15,8.71 12.19,11.34 3.57,3.97 30.82,6.41l6.95 17.62c-16.09,10.47 -64.56,22.8 -86.34,29.79 -25.21,8.09 -19.02,0.59 -46.54,0.72 -74.97,0.33 -50.32,-2.72 -61.48,13.93 -2.56,3.83 -5.34,5.8 -8.19,8.43 -19.18,17.74 -37.37,63.18 -21.66,64.23 18.37,1.21 0.88,-71.96 84.1,-72.13 72.19,-0.15 60.84,59.8 76.89,76.81 10.6,-0.65 28.43,-32.46 38.33,-47.37 10.34,-15.56 22.12,-36.24 33.75,-50.35 0.4,0.4 0.89,1.03 1.09,1.3 0.2,0.27 0.81,0.98 1.06,1.34l18.12 42.97 -15.27 14.59c-2.56,3.15 -7.39,11.55 -9.3,17.3 -4.88,14.7 -3,30.15 3.79,43.05 7.13,13.56 13.31,20.21 29.05,26.32 82.82,32.15 115.35,-118.3 6.22,-106.77 4.31,15.16 23.26,46.47 19.36,59.64 -13.99,4.42 -14.91,-9.37 -19.69,-21.27 -4.13,-10.31 -8.43,-20.81 -12.95,-30.45l5.58 -4.16c2.67,-1.42 4.04,-1.6 7.42,-2.62l-22.74 -55.5 29.92 -1.76 -0.8 -10.67c-13.51,-4.09 -24.09,-4.14 -32.45,4.85l-15.62 -33.32c-7.67,-1.6 -16.26,-1.91 -24.27,-1.64z"/>
   <path class="fil12" d="M1437.25 1431.22c-7.82,-3.79 -0.72,0.05 -5.35,-3.31 -2.57,-1.87 -1.68,-1.32 -4.28,-3.45l-26.84 -21.12c-12.62,-8.75 -25.35,-15.45 -38.15,-24.08 49.91,54.36 60.72,4.78 59.96,103.5l9.62 96.9c9.05,-3.89 38.23,-31.16 46.22,-37.95l92.01 -75.92c4.57,-1.64 63.73,-4.03 79.64,-7.08 75.29,-14.42 153.53,-59.67 200.33,-119.35 8.22,-10.48 5.37,-7.89 10.8,-9.44l-13.32 -11.68c-12.86,9.28 -26.14,23.41 -41.55,34.75 -58.01,42.75 -128.4,69.42 -204.16,68.79 -21.32,-0.17 -15.03,-2.06 -27.83,9.13 -14.44,12.62 -28.26,23 -42.87,36.43 -4.26,3.93 -6.19,4.73 -10.83,8.46l-73.11 61.09 -10.29 -105.67z"/>
   <path class="fil13" d="M426.01 633.24c74.14,202.91 -89.22,275.93 -93.59,290.56 -2.31,7.77 -4.85,46.87 -4.12,54.84l38.62 12.81c6.92,-71.48 -2.26,-38.32 32.49,-67.5 29.53,-24.8 54,-52.52 70.28,-95.5 19.33,-51.02 19.62,-112.69 -2.22,-164.18 -3.45,-8.14 -7.05,-15.05 -10.99,-22.63 -3.97,-7.65 -9.22,-13 -11.53,-21.31l-2.91 0c-3.54,5.1 -10.15,12.07 -16.03,12.91z"/>
   <polygon class="fil7" points="1277.29,224.32 1423.59,224.32 1423.56,122.08 1277.02,122.08 "/>
   <path class="fil9" d="M1232.9 311.23l228.98 0.65c-1.64,-8.28 -23.76,-50.5 -30.18,-58.13l-168.24 -0.33 -30.56 57.81z"/>
   <path class="fil14" d="M1048.63 972.57c-17.07,82.69 -43.38,117.57 -83.35,171.3 -7.74,10.4 -17.81,16.52 -26.35,26.48 -8.81,10.31 -16.29,15.08 -26.9,23.56 -8.13,6.52 -24.1,15.62 -30.29,22.48 2.01,18.06 2.51,46.22 12.41,59.34l1.87 -35.1c79.81,-38.64 149.36,-132.89 174.1,-220.22 3.65,-12.87 4.66,-36.81 11.99,-45.93l-0.78 -9.27 -32.7 7.36z"/>
   <path class="fil9" d="M550.4 394.46c2.48,28.93 29.62,52.51 61.41,49.51 29,-2.71 52.72,-28.45 49.83,-60.89 -6.45,-72.48 -117.75,-64.53 -111.24,11.38z"/>
   <path class="fil9" d="M1277.02 122.08l146.54 0 0.03 102.24 -146.3 0 -0.27 -102.24zm-14.26 116.87l175.58 -0.06 -0.1 -131.48 -174.26 -0.4 -1.22 131.94z"/>
   <path class="fil14" d="M1321.38 1341.78l21.52 -36.35c-7.62,-16.02 -45.35,-47.11 -69.1,-126.06 -16.88,-56.11 -18.22,-113.66 -6.68,-172.47l-3.73 0.14c-8.83,58.8 -32.42,93.79 -11.84,187.36 20.52,93.31 62.79,130.49 69.83,147.38z"/>
   <path class="fil13" d="M506.62 1226.93c7.28,2.54 16.39,6.59 21.5,11.44l28.3 9.49c-1.29,-48.36 -10.75,-82.5 -31.73,-119.37 -14.74,-25.89 -47.9,-64.38 -73.06,-76.43l22.42 33.36c7.77,12.84 13.46,23.81 18.86,38.75 13.48,37.3 14.29,61.66 13.71,102.76z"/>
   <path class="fil3" d="M631.94 1513.93l138.63 0.57c-7.67,-12.28 -33.62,-30.32 -53.69,-37.63 -24.5,-8.92 -56.39,-11.61 -83.98,-7.03l-0.96 44.09z"/>
   <path class="fil5" d="M205.72 801.81c6.62,-13.61 -3.57,10.98 1.4,-3.17 0.47,-1.35 1.29,-5.74 1.69,-7.48 4.21,-18.46 10.91,-26.96 15.9,-41.91l8.56 12.36c10.92,23.37 8.45,28.65 13.86,42.93 10.5,-2.91 12.1,-11.41 13.49,-22.47 14.84,2.51 19.75,10.03 28.69,10.75 1.22,-28.64 -24.09,-36.98 -41.57,-43.36 -10.05,-3.67 -8.33,-6.13 -22.25,-6 -11.66,0.1 -63.38,13.64 -61.85,50.03 8.51,-1.43 16.41,-8.32 25.83,-11.28 7.5,8.11 1.72,11.87 14.41,22.41l1.84 -2.81z"/>
   <path class="fil0" d="M626.01 998.32l40.62 1.18 -0.12 -82.02c-50.24,-1.16 -40.69,-4.79 -40.69,36.83 0.01,14.48 -0.42,29.61 0.19,44.01z"/>
   <path class="fil11" d="M852.28 1392.51c5.26,3.25 8.96,5.73 13.49,9.99 6.18,5.84 7.12,8 14.94,10.8 1.1,-18.09 5.34,-95.42 11.2,-105.43 -7.35,-11.82 -18.2,-21.02 -29.28,-29.12l-10.35 113.76z"/>
   <path class="fil9" d="M1123.79 1079.24c-22.26,13 -12.96,-2.31 -21.81,29 -1.74,6.15 -4.63,2.69 -0.4,12.51 4.64,10.75 19.29,34.58 37.45,26.44 7.56,-3.4 10.62,-10.94 15.53,-18.33 8.01,-12.05 9.64,-7.67 4.72,-22.22 -3.13,-9.23 -4.09,-18.37 -10.17,-23.56 -5.73,-4.91 -16.78,-8.81 -25.32,-3.84z"/>
   <path class="fil9" d="M1177 1377.22c36.59,16.38 27.27,-31.92 27.35,-48.08 0.1,-19.55 4.9,-34.82 -17.69,-33.62 -19.45,1.03 -13.9,19.03 -13.87,36.03 0.02,13.67 -4.1,35.6 4.21,45.67z"/>
   <path class="fil5" d="M239.41 714.33l4.05 25.56c30.06,-4.14 32.69,-9.62 61.28,3.06 4.89,-18.37 6.31,-36.55 -2.3,-52.28 -23.42,2.07 -42.63,16.19 -63.03,23.66z"/>
   <path class="fil5" d="M146.22 743.08c23.55,-13.21 35.62,-7.18 62.3,-3.01l2.96 -25.76c-50.07,-17.95 -64.29,-40.78 -68.63,-4.16 -1.65,13.94 0.28,20.69 3.37,32.93z"/>
   <path class="fil6" d="M2018.59 1129.7c3.66,13.14 17.36,26.31 31.6,17.95 11.55,-6.76 17.35,-24.27 13.23,-41.57 -9.42,-39.54 -56.76,-19.18 -44.83,23.62z"/>
   <path class="fil4" d="M663.64 314.48c6.41,7.28 10.92,11.78 16.86,21.5 4.29,7.05 8.87,20.98 13.54,27.27l49.67 -73.94 -80.07 25.17z"/>
   <path class="fil6" d="M2047.4 1039.98c14.35,3.55 6.81,-1.08 17.58,-2.82 -0.19,17.73 -19.31,7.42 -23.44,7.1 -4.15,-0.33 -24.48,11.15 -24.81,-7.01 10.46,1.38 1.48,4.42 15.65,3.5l8.17 -12.51c-6.74,-4.08 -8.67,-3.86 -8.31,-13.86 6.15,-3.05 19,-4.6 17.99,4.03 -1.3,11.2 -13.92,4.14 -2.83,21.57zm24.45 -1.58c10.25,-36.41 -53.31,-49.49 -62.13,-13.06 -8.86,36.62 52.38,47.69 62.13,13.06z"/>
   <path class="fil15" d="M1128.64 1632l168.79 0.06 0.01 211.16 -169.1 -0.05 0.3 -211.17zm-0.76 212.39l170.3 1.05c3.7,-12.01 3.7,-203.65 0.01,-214.61l-170.45 -1.05c-3.55,12.01 -3.55,203.65 0.14,214.61z"/>
   <path class="fil3" d="M544.57 1511.73c17.2,0.11 54.56,3.09 69.07,-0.63l-0.08 -36.41c-24.4,0.4 -60.65,22.01 -68.99,37.04z"/>
   <path class="fil9" d="M561.89 282.58l93.71 0.01c18.58,-0.01 19.09,-14.41 0,-14.41l-93.71 0c-20.29,0 -19.69,14.4 0,14.4z"/>
   <path class="fil3" d="M531.57 1585.3c3.89,15.04 -5.97,22.72 -14.41,14.45 -8.85,-8.69 -1.23,-18.63 14.41,-14.45zm-18.54 -14.63c-28.83,12.85 -10.04,57.63 20.71,45.19 28.79,-11.66 12.12,-59.81 -20.71,-45.19z"/>
   <path class="fil3" d="M829.75 1599.35c-3.53,3.8 -9.32,4.64 -13.17,1.28 -7.01,-6.13 -2.8,-9.84 1.02,-13.48 10.79,-10.26 18.89,4.94 12.15,12.2zm-17.71 -28.01c-29.23,17.24 -7.43,57.93 21.92,44.31 27.17,-12.62 8.12,-62.03 -21.92,-44.31z"/>
   <polygon class="fil0" points="799.02,906.25 799.02,915.86 799.08,925.8 833.62,925.75 833.76,891.15 831,891.12 799.02,891.12 "/>
   <polygon class="fil0" points="723.17,925.44 757.7,925.85 757.77,891.1 723.07,891.23 "/>
   <polygon class="fil0" points="559.9,925.39 594.4,925.86 594.47,891.09 559.79,891.25 "/>
   <path class="fil1" d="M1268.81 529.24c-31.99,8.13 -44.92,8.1 -77.54,-0.1 14.96,27.57 65.48,30.82 77.54,0.1z"/>
   <path class="fil2" d="M1208.24 1886.95c11.1,0 25.17,1.85 25.9,-10.16 0.8,-13.33 -12.42,-11.13 -25.9,-11.13 -9.79,0 -15.35,0.04 -16.26,9.28 -0.99,10 7.15,12.01 16.26,12.01z"/>
   <path class="fil2" d="M1208.24 1609.56c37.84,0 35.68,-21.29 0.01,-21.29 -21.57,0 -23.94,21.29 -0.01,21.29z"/>
   <path class="fil9" d="M2047.4 1039.98c-11.09,-17.43 1.53,-10.37 2.83,-21.57 1.01,-8.63 -11.84,-7.08 -17.99,-4.03 -0.36,10 1.57,9.78 8.31,13.86l-8.17 12.51c-14.17,0.92 -5.19,-2.12 -15.65,-3.5 0.33,18.16 20.66,6.68 24.81,7.01 4.13,0.32 23.25,10.63 23.44,-7.1 -10.77,1.74 -3.23,6.37 -17.58,2.82z"/>
   <path class="fil5" d="M212.84 740.58l26.52 -0.42 -3.72 -23.27 -18.73 0.07c-3.62,9.97 -4.59,12.05 -4.07,23.62z"/>
   <path class="fil0" d="M1447.68 1128.56c-14.52,8.36 -3.41,32.84 13.86,21.82 12.48,-7.96 1.32,-30.57 -13.86,-21.82z"/>
   <path class="fil5" d="M150.56 747.67c4.85,3.55 -5.69,0.24 6.32,3.45 11.12,2.96 37.65,-3.13 48.18,-5 -5.97,-4.3 -4.5,-3.91 -15.49,-5.75 -14.4,-2.42 -30.33,-4.04 -39.01,7.3z"/>
   <path class="fil5" d="M298.44 750.49c3.05,-1.03 3.27,-1.96 4.53,-2.82 -11.35,-15.2 -45.67,-7.47 -55.33,-2.81 9.92,3.97 39.28,9.53 50.8,5.63z"/>
   <path class="fil9" d="M531.57 1585.3c-15.64,-4.18 -23.26,5.76 -14.41,14.45 8.44,8.27 18.3,0.59 14.41,-14.45z"/>
   <path class="fil9" d="M817.6 1587.15c-3.82,3.64 -8.03,7.35 -1.02,13.48 3.85,3.36 9.64,2.52 13.17,-1.28 6.74,-7.26 -1.36,-22.46 -12.15,-12.2z"/>
   <polygon class="fil9" points="1888.05,658.52 1900.06,658.18 1898.9,636.05 1888.23,635.92 "/>
   <polygon class="fil9" points="1682.76,658.1 1694.93,657.51 1694.24,636.18 1682.82,636.41 "/>
   <path class="fil0" d="M1431.16 1026.39l3.35 8.84 19.05 0.59 0.01 -11.3c-9.49,0 -15.46,-1.21 -22.41,1.87z"/>
   <path class="fil6" d="M2085.83 980.74c3.2,3.81 9.44,11.47 13.83,15.67 13.27,-12.16 -6.27,-25.69 -13.83,-15.67z"/>
   <path class="fil6" d="M2098.86 1144.28c-1.54,5.23 0.19,9.21 4.16,11.11 11.03,5.31 9.72,-10.06 7.05,-16.44 -7.05,0.19 -9.34,-1.04 -11.21,5.33z"/>
   <path class="fil6" d="M1970.25 1098.47c3.3,7 17.24,3.93 11.66,-9.02 -3.88,-9.03 -17.28,-2.9 -11.66,9.02z"/>
   <path class="fil6" d="M1971.91 1139.07c-4.3,9.76 -1.34,22.24 8.23,15.39 4.62,-3.29 6.64,-14.8 -8.23,-15.39z"/>
   <path class="fil6" d="M2106.87 1085.06c-12.94,4.18 -9.5,16.04 -1.96,17.2 8.51,1.29 10.86,-9.6 1.96,-17.2z"/>
   <path class="fil6" d="M2000.93 1005.42c-10.16,3.65 -11.34,16.73 -0.44,19.92 5.86,-7.47 5.8,-12.14 0.44,-19.92z"/>
   <path class="fil6" d="M1981.92 995.15c2.21,-1.68 1.37,-0.66 3.83,-3.42 0.3,-0.34 2.5,-3.26 3.17,-4.02 4.74,-5.39 4.14,-2.64 7.62,-9.25 -11.37,-2.42 -24.06,2.36 -14.62,16.69z"/>
   <path class="fil6" d="M2082.84 1005.48c-6.25,5.48 -9.49,13.25 0,19.8 8.15,-6.32 8.61,-13.71 0,-19.8z"/>
   <path class="fil0" d="M1562.15 1162.11c-6.93,4.93 -6.55,4.3 -2.64,12.6 14.2,1.15 15.44,-10.15 2.64,-12.6z"/>
  </g>
 </g>
</svg>
