<?xml version="1.0" encoding="UTF-8"?>
<!DOCTYPE svg PUBLIC "-//W3C//DTD SVG 1.1//EN" "http://www.w3.org/Graphics/SVG/1.1/DTD/svg11.dtd">
<!-- Creator: CorelDRAW 2017 -->
<svg xmlns="http://www.w3.org/2000/svg" xml:space="preserve" width="24.2816mm" height="21.1666mm" version="1.1" style="shape-rendering:geometricPrecision; text-rendering:geometricPrecision; image-rendering:optimizeQuality; fill-rule:evenodd; clip-rule:evenodd"
viewBox="0 0 2428.16 2116.66"
 xmlns:xlink="http://www.w3.org/1999/xlink">
 <defs>
  <style type="text/css">
   <![CDATA[
    .fil7 {fill:#283442;fill-rule:nonzero}
    .fil6 {fill:#3D4B5D;fill-rule:nonzero}
    .fil11 {fill:#6095CF;fill-rule:nonzero}
    .fil10 {fill:#7CCAC4;fill-rule:nonzero}
    .fil2 {fill:#BCD1D3;fill-rule:nonzero}
    .fil5 {fill:#C64D3F;fill-rule:nonzero}
    .fil8 {fill:#DB9A31;fill-rule:nonzero}
    .fil1 {fill:#DFEFF0;fill-rule:nonzero}
    .fil9 {fill:#EBEFEF;fill-rule:nonzero}
    .fil3 {fill:#F6DF79;fill-rule:nonzero}
    .fil4 {fill:white;fill-rule:nonzero}
    .fil0 {fill:#999999;fill-rule:nonzero}
   ]]>
  </style>
 </defs>
 <g id="Layer_x0020_1">
  <metadata id="CorelCorpID_0Corel-Layer"/>
  <g id="_2054817618096">
   <polygon class="fil0" points="657.53,1880.3 127.61,2116.66 461.14,1276.8 832.2,1209.32 1214.08,1284.18 1595.96,1209.32 1967.02,1276.8 2300.55,2116.66 1769.83,1880.3 1214.08,2103.2 "/>
   <polygon class="fil1" points="657.53,1880.3 36.61,2042.36 421.38,1073.5 832.58,998.71 "/>
   <polygon class="fil2" points="657.53,1880.3 1214.08,2042.36 1214.08,1073.5 832.58,998.71 "/>
   <polygon class="fil1" points="1770.63,1880.3 1214.08,2042.36 1214.08,1073.5 1595.58,998.71 "/>
   <polygon class="fil2" points="1770.63,1880.3 2391.55,2042.36 2006.78,1073.5 1595.58,998.71 "/>
   <polygon class="fil3" points="2169.35,1631.53 2169.35,1631.53 1849.65,1584.48 1916.94,1861.77 2300.55,1961.9 "/>
   <polygon class="fil4" points="1885.77,1590.46 2183.24,1666.49 2158.2,1603.45 1812.33,1515.06 1889.61,1854.64 1949.44,1870.26 "/>
   <polygon class="fil3" points="750.68,1850.27 1214.08,1985.21 1486.14,1905.99 1428.62,1483.72 1206.59,1515.06 1108.16,1483.72 1096.28,1603.74 795.92,1563.73 "/>
   <g>
    <polygon class="fil3" points="657.53,1409.76 729.53,1073.23 461.14,1122.04 330.47,1451.09 "/>
   </g>
   <polygon class="fil4" points="1905.7,1379.79 1835.4,1098.1 1776.15,1087.33 1832.2,1311.9 1654.22,1282.24 1394.29,1322.73 1407.97,1460.37 1211.72,1491.92 1134.22,1448.17 1142.65,1318.88 977.43,1291.34 1005.93,1088.61 952,1078.04 939.62,1166.09 799.99,1136.71 739.87,1152.84 760.11,1067.67 708.79,1077 634.21,1382.12 334.69,1440.46 310.63,1501.05 492.26,1465.68 356.91,1902.05 419.43,1885.73 553.41,1453.77 687.69,1427.61 729.18,1212.52 801.54,1193.11 931.97,1220.56 915.64,1336.68 1084.66,1364.85 1070.98,1574.85 783.3,1511.9 724.52,1842.65 777.51,1858.08 827.33,1577.7 1121.58,1642.09 1130.26,1508.95 1201.46,1549.15 1413.4,1515.08 1453.19,1915.58 1506.79,1899.97 1454.03,1368.96 1653.92,1337.82 "/>
   <path class="fil2" d="M1595.58 998.71l-381.5 74.79 -381.5 -74.79 -11.99 2.18c148.58,199.49 393.49,415.05 393.49,415.05 0,0 244.91,-215.56 393.49,-415.05l-11.99 -2.18z"/>
   <g>
    <g>
     <g>
      <path class="fil5" d="M1596.74 678.09c0,211.34 -382.66,737.85 -382.66,737.85 0,0 -382.66,-526.51 -382.66,-737.85 0,-211.34 171.32,-382.66 382.66,-382.66 211.34,0 382.66,171.32 382.66,382.66z"/>
     </g>
     <g>
      <path class="fil6" d="M1534.71 678.09c0,177.08 -143.55,320.62 -320.63,320.62 -177.08,0 -320.63,-143.54 -320.63,-320.62 0,-177.08 143.55,-320.63 320.63,-320.63 177.08,0 320.63,143.55 320.63,320.63z"/>
     </g>
     <g>
      <g>
       <g>
        <path class="fil7" d="M1456.33 698.68c0,122.42 -99.24,221.66 -221.66,221.66 -122.42,0 -221.66,-99.24 -221.66,-221.66 0,-122.42 99.24,-221.66 221.66,-221.66 122.42,0 221.66,99.24 221.66,221.66z"/>
       </g>
      </g>
     </g>
    </g>
   </g>
   <g>
    <g>
     <path class="fil8" d="M1427.02 673.91c0,115.62 -93.22,209.35 -208.2,209.35 -114.99,0 -208.2,-93.73 -208.2,-209.35 0,-115.63 93.21,-209.36 208.2,-209.36 114.98,0 208.2,93.73 208.2,209.36z"/>
     <g>
      <g>
       <path class="fil9" d="M1188.63 81.68l0 -81.68 21.57 0 16.95 29.93c4.85,8.61 9.71,18.78 13.34,28l0.35 0c-1.2,-10.79 -1.58,-21.82 -1.58,-34.06l0 -23.87 16.98 0 0 81.68 -19.38 0 -17.47 -31.51c-4.83,-8.73 -10.18,-19.27 -14.17,-28.84l-0.37 0.12c0.49,10.78 0.73,22.3 0.73,35.63l0 24.6 -16.95 0z"/>
      </g>
      <g>
       <path class="fil9" d="M1198.13 1270.89c4.97,2.54 12.61,5.09 20.48,5.09 8.49,0 12.97,-3.52 12.97,-8.85 0,-5.09 -3.87,-8.01 -13.7,-11.52 -13.57,-4.72 -22.42,-12.23 -22.42,-24.11 0,-13.94 11.65,-24.6 30.91,-24.6 9.21,0 16,1.94 20.84,4.12l-4.13 14.91c-3.25,-1.58 -9.07,-3.89 -17.07,-3.89 -8.01,0 -11.88,3.64 -11.88,7.89 0,5.2 4.6,7.51 15.14,11.51 14.43,5.33 21.21,12.85 21.21,24.35 0,13.7 -10.54,25.33 -32.95,25.33 -9.34,0 -18.55,-2.42 -23.15,-4.96l3.75 -15.27z"/>
      </g>
      <g>
       <path class="fil9" d="M563.05 716.54l-19.39 -81.68 19.76 0 6.17 33.69c1.83,9.69 3.53,20.24 4.86,28.47l0.24 0c1.33,-8.84 3.27,-18.65 5.33,-28.72l6.91 -33.44 19.63 0 6.54 34.42c1.83,9.57 3.16,18.3 4.37,27.38l0.24 0c1.21,-9.08 3.03,-18.66 4.73,-28.36l6.66 -33.44 18.78 0 -21.08 81.68 -19.99 0 -6.91 -35.15c-1.58,-8.24 -2.91,-15.87 -3.88,-25.2l-0.25 0c-1.45,9.21 -2.78,16.96 -4.72,25.2l-7.76 35.15 -20.24 0z"/>
      </g>
      <g>
       <polygon class="fil9" points="1864.05,682 1834.01,682 1834.01,701.39 1867.57,701.39 1867.57,716.54 1815.46,716.54 1815.46,634.86 1865.88,634.86 1865.88,650 1834.01,650 1834.01,666.97 1864.05,666.97 "/>
      </g>
     </g>
     <g>
      <g>
       <polygon class="fil9" points="1224.74,210.6 1201.4,210.6 1201.4,134.76 1224.74,134.76 "/>
      </g>
      <g>
       <polygon class="fil9" points="1230.57,210.6 1195.57,210.6 1195.57,134.76 1230.57,134.76 "/>
      </g>
      <g>
       <g>
        <polygon class="fil9" points="1752.66,686.02 1676.82,686.02 1676.82,662.69 1752.66,662.69 "/>
       </g>
       <g>
        <polygon class="fil9" points="1752.66,691.85 1676.82,691.85 1676.82,656.85 1752.66,656.85 "/>
       </g>
       <g>
        <polygon class="fil9" points="749.32,691.85 673.48,691.85 673.48,656.85 749.32,656.85 "/>
       </g>
      </g>
      <g>
       <g>
        <polygon class="fil9" points="1549.24,354.68 1532.74,338.18 1586.37,284.55 1602.86,301.05 "/>
       </g>
       <g>
        <polygon class="fil9" points="1553.36,358.8 1528.62,334.06 1582.24,280.43 1606.99,305.17 "/>
       </g>
       <g>
        <g>
         <polygon class="fil9" points="872.77,358.8 819.15,305.17 843.9,280.43 897.52,334.06 "/>
        </g>
       </g>
      </g>
     </g>
     <g>
      <g>
       <g>
        <g>
         <g>
          <polygon class="fil4" points="1400.93,491.05 1218.09,623.79 1243.14,648.84 "/>
         </g>
         <g>
          <polygon class="fil4" points="1191.33,700.65 1166.28,675.6 1035.37,856.6 "/>
         </g>
         <g>
          <polygon class="fil4" points="1400.89,491.01 1268.15,673.85 1243.1,648.8 "/>
         </g>
         <g>
          <polygon class="fil4" points="1191.29,700.61 1216.34,725.66 1035.34,856.57 "/>
         </g>
        </g>
        <g>
         <g>
          <polygon class="fil4" points="1400.89,856.6 1268.15,673.76 1243.1,698.81 "/>
         </g>
         <g>
          <polygon class="fil4" points="1191.29,647 1216.34,621.95 1035.34,491.05 "/>
         </g>
         <g>
          <polygon class="fil4" points="1400.93,856.57 1218.09,723.82 1243.14,698.77 "/>
         </g>
         <g>
          <polygon class="fil4" points="1191.33,646.96 1166.28,672.01 1035.37,491.01 "/>
         </g>
        </g>
       </g>
       <polygon class="fil10" points="1508.02,673.87 1508.41,673.87 1508.21,673.81 1508.41,673.75 1508.02,673.75 1266.98,624.96 1218.19,383.91 1218.19,383.53 1218.13,383.72 1218.07,383.53 1218.07,383.91 1169.54,624.15 928.24,673.75 927.86,673.75 928.05,673.81 927.86,673.87 928.24,673.87 1168.74,723.2 1218.07,963.7 1218.07,964.08 1218.13,963.89 1218.19,964.08 1218.19,963.7 1267.79,722.4 "/>
      </g>
      <g>
       <g>
        <polygon class="fil5" points="1181.18,636.61 1254.54,706.5 1012.92,883.17 "/>
        <polygon class="fil11" points="1254.39,706.66 1181.03,636.76 1427.02,464.61 "/>
       </g>
       <path class="fil6" d="M1188.42 644.39c14.79,-15.08 39,-15.31 54.08,-0.51 15.07,14.79 15.3,39 0.5,54.08 -14.79,15.07 -39,15.3 -54.07,0.51 -15.08,-14.79 -15.31,-39.01 -0.51,-54.08z"/>
      </g>
     </g>
    </g>
   </g>
   <g>
    <g>
     <path class="fil9" d="M179.94 973.75l-12.8 0 0 -12.8c0,-5.58 -4.53,-10.11 -10.11,-10.11 -5.58,0 -10.11,4.53 -10.11,10.11l0 12.8 -12.8 0c-5.58,0 -10.1,4.52 -10.1,10.11 0,5.58 4.52,10.11 10.1,10.11l12.8 0 0 12.79c0,5.59 4.53,10.11 10.11,10.11 5.58,0 10.11,-4.52 10.11,-10.11l0 -12.79 12.8 0c5.58,0 10.11,-4.53 10.11,-10.11 0,-5.59 -4.53,-10.11 -10.11,-10.11z"/>
     <path class="fil9" d="M486.92 438.58l-12.79 0 0 -12.79c0,-5.59 -4.53,-10.11 -10.11,-10.11 -5.58,0 -10.11,4.52 -10.11,10.11l0 12.79 -12.8 0c-5.58,0 -10.11,4.53 -10.11,10.11 0,5.59 4.53,10.11 10.11,10.11l12.8 0 0 12.8c0,5.58 4.53,10.11 10.11,10.11 5.58,0 10.11,-4.53 10.11,-10.11l0 -12.8 12.79 0c5.59,0 10.12,-4.52 10.12,-10.11 0,-5.58 -4.53,-10.11 -10.12,-10.11z"/>
     <path class="fil9" d="M55.92 272.08l-12.79 0 0 -12.8c0,-5.58 -4.53,-10.11 -10.11,-10.11 -5.58,0 -10.11,4.53 -10.11,10.11l0 12.8 -12.8 0c-5.58,0 -10.11,4.52 -10.11,10.11 0,5.58 4.53,10.11 10.11,10.11l12.8 0 0 12.79c0,5.59 4.53,10.11 10.11,10.11 5.58,0 10.11,-4.52 10.11,-10.11l0 -12.79 12.79 0c5.59,0 10.11,-4.53 10.11,-10.11 0,-5.59 -4.52,-10.11 -10.11,-10.11z"/>
    </g>
    <g>
     <path class="fil9" d="M2248.22 973.75l12.8 0 0 -12.8c0,-5.58 4.53,-10.11 10.11,-10.11 5.58,0 10.11,4.53 10.11,10.11l0 12.8 12.8 0c5.58,0 10.11,4.52 10.11,10.11 0,5.58 -4.53,10.11 -10.11,10.11l-12.8 0 0 12.79c0,5.59 -4.53,10.11 -10.11,10.11 -5.58,0 -10.11,-4.52 -10.11,-10.11l0 -12.79 -12.8 0c-5.58,0 -10.11,-4.53 -10.11,-10.11 0,-5.59 4.53,-10.11 10.11,-10.11z"/>
     <path class="fil9" d="M1941.23 438.58l12.8 0 0 -12.79c0,-5.59 4.53,-10.11 10.11,-10.11 5.58,0 10.11,4.52 10.11,10.11l0 12.79 12.8 0c5.58,0 10.11,4.53 10.11,10.11 0,5.59 -4.53,10.11 -10.11,10.11l-12.8 0 0 12.8c0,5.58 -4.53,10.11 -10.11,10.11 -5.58,0 -10.11,-4.53 -10.11,-10.11l0 -12.8 -12.8 0c-5.58,0 -10.1,-4.52 -10.1,-10.11 0,-5.58 4.52,-10.11 10.1,-10.11z"/>
     <path class="fil9" d="M2372.24 272.08l12.79 0 0 -12.8c0,-5.58 4.53,-10.11 10.11,-10.11 5.58,0 10.11,4.53 10.11,10.11l0 12.8 12.8 0c5.58,0 10.11,4.52 10.11,10.11 0,5.58 -4.53,10.11 -10.11,10.11l-12.8 0 0 12.79c0,5.59 -4.53,10.11 -10.11,10.11 -5.58,0 -10.11,-4.52 -10.11,-10.11l0 -12.79 -12.79 0c-5.59,0 -10.11,-4.53 -10.11,-10.11 0,-5.59 4.52,-10.11 10.11,-10.11z"/>
    </g>
   </g>
   <g>
    <g>
     <g>
      <path class="fil9" d="M330.39 765.56l21.92 -1.08 -12.58 -10.31 0.24 -0.04 0.2 -0.03 0.25 -0.03 0.21 -0.03 0.46 -0.07 0.18 -0.01 -0.06 0 0.5 -0.07 0.47 -0.05 -0.05 0.01 0.21 -0.03 0.47 -0.05 0.21 -0.02 0.21 -0.02 0.21 -0.02 0.21 -0.02 0.47 -0.04 0.21 -0.01 0.21 -0.02 0.23 -0.01 0.22 -0.02 0.45 -0.02 0.21 -0.01 0.21 -0.01 0.22 -0.01 0.47 -0.02 0.21 0 0.21 -0.01 0.22 0 0.21 -0.01 0.48 0 0.21 0 0 21.94 -0.21 0 0.04 0 -0.21 0.01 -0.22 0 -0.21 0.01 -0.21 0 0.03 0 -0.2 0.01 -0.21 0.01 -0.21 0.01 0.03 0 -0.22 0.02 -0.19 0.01 -0.21 0.02 -0.21 0.01 0.05 0 -0.21 0.02 -0.21 0.02 -0.21 0.02 -0.21 0.02 0.05 -0.01 -0.21 0.03 -0.47 0.05 0.05 -0.01 0.08 -0.01 -0.46 0.06 -0.24 0.03 0.04 -0.01 -0.21 0.03 -0.17 0.03 -0.2 0.03 -0.18 0.02 -12.58 -10.31zm12.58 10.31l-11.99 1.79 -0.59 -12.1 12.58 10.31zm-87.63 -81.71l0 -21.94 0 0 4.84 0.12 4.76 0.35 4.74 0.57 4.64 0.81 4.58 1.02 4.47 1.24 4.4 1.43 4.32 1.66 4.18 1.83 4.09 2.02 3.99 2.21 3.86 2.39 3.74 2.55 3.61 2.73 3.49 2.89 3.33 3.04 3.19 3.19 3.04 3.34 2.88 3.48 2.73 3.6 2.56 3.75 2.39 3.86 2.21 3.99 2.02 4.09 1.84 4.2 1.64 4.31 1.44 4.39 1.23 4.49 1.02 4.57 0.81 4.64 0.58 4.72 0.35 4.78 -21.92 1.08 -0.27 -3.7 -0.46 -3.66 -0.61 -3.6 -0.8 -3.53 -0.95 -3.47 -1.12 -3.39 -1.26 -3.33 -1.42 -3.24 -1.56 -3.17 -1.71 -3.07 -1.85 -3 -1.98 -2.89 -2.11 -2.8 -2.24 -2.7 -2.36 -2.58 -2.47 -2.47 -2.59 -2.36 -2.69 -2.25 -2.79 -2.09 -2.9 -1.99 -3 -1.85 -3.07 -1.71 -3.17 -1.56 -3.26 -1.43 -3.3 -1.26 -3.4 -1.11 -3.47 -0.96 -3.52 -0.78 -3.6 -0.63 -3.64 -0.45 -3.72 -0.27 -3.76 -0.1 0 0zm-80.45 46.83l7.04 -20.8 -13.32 5.46 1.55 -2.95 1.64 -2.88 1.74 -2.81 1.83 -2.76 1.92 -2.68 2.01 -2.62 2.09 -2.54 2.18 -2.49 2.27 -2.39 2.31 -2.3 2.42 -2.25 2.51 -2.16 2.56 -2.07 2.61 -1.98 2.72 -1.91 2.78 -1.8 2.81 -1.71 2.9 -1.63 2.96 -1.52 3.01 -1.42 3.08 -1.33 3.12 -1.22 3.18 -1.12 3.24 -1.01 3.27 -0.89 3.3 -0.77 3.36 -0.68 3.42 -0.55 3.44 -0.43 3.47 -0.32 3.5 -0.18 3.53 -0.06 0 21.94 -2.75 0.06 -2.72 0.14 -2.69 0.24 -2.66 0.33 -2.62 0.43 -2.6 0.52 -2.58 0.61 -2.53 0.69 -2.48 0.77 -2.44 0.86 -2.42 0.94 -2.38 1.03 -2.33 1.1 -2.28 1.18 -2.24 1.25 -2.21 1.33 -2.14 1.4 -2.08 1.47 -2.05 1.54 -2 1.61 -1.91 1.66 -1.86 1.73 -1.83 1.82 -1.75 1.85 -1.68 1.91 -1.63 1.98 -1.55 2.02 -1.48 2.08 -1.43 2.14 -1.34 2.19 -1.28 2.22 -1.19 2.27 -13.32 5.46zm13.32 -5.46l-4.3 8.51 -9.02 -3.05 13.32 -5.46zm-30.3 2.62l0 -21.94 0 0 0.75 0 0.84 0.01 0.83 0.02 0.75 0.04 0.75 0.03 0.75 0.05 0.83 0.05 0.83 0.07 0.65 0.06 0.74 0.07 0.83 0.09 0.81 0.1 0.74 0.1 0.74 0.1 0.8 0.13 0.73 0.12 0.74 0.13 0.74 0.14 0.71 0.13 0.8 0.17 0.73 0.16 0.73 0.16 0.78 0.19 0.71 0.18 0.72 0.18 0.7 0.2 0.72 0.19 0.69 0.21 0.7 0.2 0.82 0.25 0.67 0.23 0.69 0.22 -7.04 20.8 -0.53 -0.18 -0.53 -0.17 -0.4 -0.13 -0.54 -0.16 -0.53 -0.15 -0.52 -0.15 -0.54 -0.14 -0.52 -0.14 -0.55 -0.14 -0.46 -0.11 -0.53 -0.12 -0.53 -0.12 -0.48 -0.09 -0.55 -0.11 -0.54 -0.1 -0.54 -0.09 -0.57 -0.1 -0.48 -0.07 -0.56 -0.08 -0.56 -0.08 -0.49 -0.06 -0.47 -0.05 -0.58 -0.05 -0.65 -0.06 -0.49 -0.05 -0.49 -0.03 -0.59 -0.03 -0.57 -0.03 -0.59 -0.02 -0.51 -0.02 -0.5 -0.01 -0.59 0 0 0zm-53.16 53.16l-21.94 0 0 0 0.09 -3.85 0.29 -3.83 0.48 -3.73 0.66 -3.71 0.84 -3.63 1.01 -3.57 1.19 -3.51 1.35 -3.42 1.5 -3.32 1.66 -3.23 1.81 -3.14 1.94 -3.04 2.11 -2.97 2.23 -2.83 2.35 -2.73 2.49 -2.59 2.59 -2.49 2.73 -2.35 2.83 -2.23 2.97 -2.11 3.04 -1.94 3.14 -1.81 3.23 -1.66 3.32 -1.5 3.42 -1.35 3.51 -1.19 3.57 -1.01 3.63 -0.84 3.71 -0.66 3.73 -0.48 3.83 -0.29 3.85 -0.09 0 21.94 -2.75 0.07 -2.69 0.21 -2.67 0.34 -2.61 0.46 -2.57 0.6 -2.53 0.71 -2.45 0.83 -2.4 0.95 -2.36 1.08 -2.29 1.16 -2.24 1.29 -2.16 1.38 -2.07 1.47 -2.01 1.59 -1.93 1.67 -1.85 1.77 -1.77 1.85 -1.67 1.93 -1.59 2.01 -1.47 2.07 -1.38 2.16 -1.29 2.24 -1.16 2.29 -1.08 2.36 -0.95 2.4 -0.83 2.45 -0.71 2.53 -0.6 2.57 -0.46 2.61 -0.34 2.67 -0.21 2.69 -0.07 2.75 0 0zm53.16 53.17l0 21.94 -3.85 -0.09 -3.83 -0.29 -3.73 -0.48 -3.71 -0.66 -3.63 -0.84 -3.57 -1.01 -3.51 -1.19 -3.42 -1.35 -3.32 -1.5 -3.23 -1.66 -3.16 -1.82 -3.02 -1.94 -2.96 -2.09 -2.84 -2.24 -2.73 -2.35 -2.6 -2.5 -2.48 -2.59 -2.35 -2.72 -2.23 -2.84 -2.11 -2.95 -1.94 -3.05 -1.81 -3.14 -1.66 -3.24 -1.51 -3.33 -1.34 -3.41 -1.19 -3.5 -1.01 -3.57 -0.84 -3.63 -0.66 -3.71 -0.48 -3.75 -0.29 -3.82 -0.09 -3.85 21.94 0 0.07 2.75 0.21 2.7 0.34 2.67 0.46 2.61 0.6 2.57 0.71 2.51 0.83 2.46 0.96 2.41 1.07 2.37 1.16 2.28 1.29 2.24 1.38 2.15 1.47 2.07 1.59 2.02 1.67 1.92 1.78 1.87 1.84 1.76 1.93 1.67 2 1.58 2.08 1.47 2.18 1.4 2.22 1.28 2.29 1.16 2.36 1.08 2.4 0.95 2.45 0.83 2.53 0.71 2.57 0.6 2.61 0.46 2.67 0.34 2.69 0.21 2.75 0.07z"/>
     </g>
     <g>
      <polygon class="fil9" points="348.09,866.42 157.91,866.42 157.91,844.48 348.09,844.48 "/>
     </g>
     <g>
      <path class="fil9" d="M382.61 809.96l21.94 0 0 0 -0.07 2.88 -0.21 2.86 -0.36 2.85 -0.5 2.78 -0.63 2.73 -0.76 2.69 -0.89 2.62 -1.01 2.56 -1.14 2.53 -1.24 2.41 -1.36 2.38 -1.49 2.3 -1.56 2.21 -1.67 2.11 -1.77 2.05 -1.87 1.96 -1.95 1.87 -2.06 1.78 -2.12 1.67 -2.22 1.58 -2.29 1.46 -2.37 1.37 -2.45 1.24 -2.48 1.12 -2.58 1.03 -2.62 0.88 -2.67 0.76 -2.75 0.64 -2.78 0.5 -2.85 0.36 -2.86 0.21 -2.88 0.07 0 -21.94 1.8 -0.05 1.76 -0.13 1.71 -0.22 1.7 -0.3 1.65 -0.38 1.65 -0.48 1.6 -0.54 1.56 -0.61 1.54 -0.7 1.49 -0.76 1.43 -0.83 1.41 -0.9 1.34 -0.96 1.32 -1.03 1.24 -1.08 1.21 -1.15 1.13 -1.18 1.09 -1.27 1.03 -1.31 0.98 -1.37 0.89 -1.38 0.82 -1.44 0.78 -1.51 0.68 -1.49 0.61 -1.58 0.55 -1.6 0.46 -1.63 0.39 -1.67 0.3 -1.7 0.22 -1.71 0.13 -1.76 0.05 -1.8 0 0zm-34.52 -34.52l0 -21.94 2.88 0.07 2.86 0.21 2.85 0.36 2.78 0.5 2.75 0.64 2.67 0.76 2.62 0.88 2.58 1.03 2.48 1.12 2.45 1.24 2.37 1.37 2.29 1.46 2.22 1.58 2.12 1.67 2.04 1.77 1.97 1.87 1.88 1.98 1.76 2.04 1.67 2.11 1.56 2.21 1.49 2.3 1.36 2.38 1.24 2.41 1.14 2.53 1.01 2.56 0.89 2.62 0.76 2.69 0.63 2.73 0.5 2.78 0.36 2.85 0.21 2.86 0.07 2.88 -21.94 0 -0.05 -1.8 -0.13 -1.76 -0.22 -1.71 -0.3 -1.7 -0.39 -1.67 -0.46 -1.63 -0.55 -1.6 -0.61 -1.58 -0.68 -1.49 -0.78 -1.51 -0.82 -1.44 -0.89 -1.38 -0.98 -1.37 -1.03 -1.31 -1.1 -1.28 -1.12 -1.18 -1.19 -1.13 -1.26 -1.09 -1.32 -1.03 -1.34 -0.96 -1.41 -0.9 -1.43 -0.83 -1.49 -0.76 -1.54 -0.7 -1.56 -0.61 -1.6 -0.54 -1.65 -0.48 -1.65 -0.38 -1.7 -0.3 -1.71 -0.22 -1.76 -0.13 -1.8 -0.05z"/>
     </g>
     <g>
      <path class="fil9" d="M552.9 190.78l21.92 -1.08 -12.58 -10.31 0.18 -0.03 0.1 -0.01 0.18 -0.03 0.11 -0.01 0.04 -0.01 0.61 -0.08 -0.33 0.05 0.04 -0.01 0.61 -0.08 0.16 -0.01 -0.38 0.05 0.11 -0.02 0.55 -0.07 0.1 -0.01 0.16 -0.01 0.11 -0.01 0.11 -0.01 0.11 -0.01 0.6 -0.04 0.11 0 -0.38 0.02 0.58 -0.04 0.1 0 0.13 -0.01 0.11 0 0.13 -0.01 0.6 -0.01 -0.39 0.01 0.11 -0.01 0.61 -0.01 0.11 0 0.11 0 0 21.94 -0.11 0 -0.11 0 0.39 -0.01 -0.11 0.01 -0.61 0.01 0.36 -0.01 -0.09 0.01 -0.11 0 -0.09 0.01 -0.1 0 0.36 -0.02 -0.6 0.04 -0.11 0 0.38 -0.02 -0.11 0.01 -0.11 0.01 -0.11 0.01 -0.06 0.01 -0.1 0.01 0.33 -0.05 -0.11 0.02 -0.6 0.07 -0.06 0.01 0.41 -0.06 -0.18 0.03 -0.55 0.07 0.41 -0.06 -0.18 0.03 -0.11 0.01 -0.04 0.01 -0.1 0.01 -0.04 0.01 -12.58 -10.31zm12.58 10.31l-11.98 1.79 -0.6 -12.1 12.58 10.31zm-46.03 -42.13l0 -21.94 0 0 2.77 0.06 2.72 0.21 2.67 0.32 2.68 0.47 2.6 0.58 2.56 0.7 2.51 0.83 2.46 0.93 2.4 1.05 2.35 1.16 2.26 1.26 2.23 1.37 2.11 1.46 2.07 1.54 1.99 1.67 1.89 1.72 1.82 1.81 1.75 1.92 1.65 1.99 1.55 2.05 1.46 2.14 1.37 2.22 1.25 2.26 1.15 2.33 1.06 2.41 0.94 2.46 0.82 2.51 0.71 2.57 0.58 2.62 0.45 2.63 0.34 2.7 0.2 2.73 -21.92 1.08 -0.12 -1.65 -0.2 -1.62 -0.29 -1.63 -0.34 -1.56 -0.43 -1.53 -0.5 -1.53 -0.56 -1.48 -0.62 -1.43 -0.71 -1.41 -0.77 -1.4 -0.81 -1.32 -0.88 -1.28 -0.95 -1.25 -0.99 -1.21 -1.05 -1.14 -1.1 -1.11 -1.17 -1.06 -1.19 -0.99 -1.25 -0.94 -1.31 -0.9 -1.31 -0.81 -1.38 -0.76 -1.41 -0.7 -1.44 -0.63 -1.48 -0.57 -1.51 -0.49 -1.54 -0.42 -1.58 -0.36 -1.58 -0.27 -1.65 -0.2 -1.66 -0.13 -1.67 -0.04 0 0zm-43.23 23.9l7.02 -20.8 -13.31 5.46 0.88 -1.68 0.94 -1.65 1.01 -1.63 1.04 -1.56 1.09 -1.52 1.14 -1.49 1.19 -1.46 1.26 -1.42 1.27 -1.34 1.33 -1.32 1.38 -1.29 1.43 -1.24 1.48 -1.19 1.48 -1.12 1.53 -1.08 1.61 -1.05 1.64 -0.98 1.63 -0.91 1.68 -0.87 1.71 -0.81 1.75 -0.76 1.81 -0.7 1.81 -0.64 1.84 -0.57 1.86 -0.51 1.93 -0.46 1.93 -0.38 1.92 -0.3 1.96 -0.25 1.97 -0.18 1.99 -0.11 2.03 -0.03 0 21.94 -1.21 0.03 -1.23 0.07 -1.21 0.1 -1.18 0.15 -1.2 0.2 -1.15 0.22 -1.11 0.26 -1.12 0.31 -1.12 0.35 -1.09 0.38 -1.07 0.42 -1.05 0.46 -1.05 0.49 -1.02 0.53 -1.03 0.57 -0.96 0.58 -0.93 0.61 -0.93 0.66 -0.94 0.7 -0.88 0.71 -0.85 0.74 -0.82 0.75 -0.81 0.82 -0.81 0.86 -0.74 0.84 -0.71 0.86 -0.7 0.91 -0.67 0.94 -0.64 0.96 -0.59 0.95 -0.56 0.99 -0.54 1.02 -13.31 5.46zm13.31 -5.46l-4.29 8.5 -9.02 -3.04 13.31 -5.46zm-20.38 4.27l0 -21.94 0 0 0.51 0 0.5 0.01 0.35 0.01 0.5 0.02 0.5 0.02 0.35 0.02 0.5 0.03 0.5 0.05 0.36 0.03 0.49 0.04 0.48 0.06 0.52 0.06 0.33 0.05 0.5 0.07 0.51 0.08 0.33 0.05 0.49 0.09 0.33 0.06 0.49 0.09 0.49 0.1 0.52 0.12 0.35 0.08 0.29 0.07 0.64 0.15 0.36 0.1 0.32 0.08 0.51 0.15 0.47 0.13 0.47 0.15 0.31 0.1 0.32 0.1 0.5 0.16 -7.02 20.8 -0.12 -0.04 -0.32 -0.1 -0.31 -0.1 -0.17 -0.05 -0.15 -0.05 -0.13 -0.03 -0.32 -0.08 -0.28 -0.08 -0.02 -0.01 -0.35 -0.07 -0.29 -0.08 -0.14 -0.02 -0.17 -0.04 -0.17 -0.03 -0.33 -0.06 -0.17 -0.03 -0.33 -0.05 -0.15 -0.04 -0.18 -0.01 -0.33 -0.05 -0.16 -0.02 -0.2 -0.02 -0.17 -0.02 -0.32 -0.03 -0.18 -0.01 -0.18 -0.01 -0.35 -0.02 -0.18 -0.02 -0.18 0 -0.35 -0.01 -0.18 -0.01 -0.19 0 0 0zm-22.14 22.14l-21.94 0 0 0 0.05 -2.25 0.17 -2.24 0.28 -2.2 0.39 -2.18 0.5 -2.15 0.59 -2.09 0.69 -2.02 0.78 -2.02 0.9 -1.98 0.97 -1.88 1.05 -1.84 1.17 -1.82 1.23 -1.72 1.29 -1.65 1.4 -1.61 1.45 -1.52 1.52 -1.45 1.61 -1.4 1.67 -1.31 1.7 -1.2 1.8 -1.17 1.87 -1.06 1.86 -0.96 1.96 -0.89 2.03 -0.8 2.03 -0.69 2.1 -0.6 2.16 -0.49 2.17 -0.39 2.19 -0.28 2.25 -0.17 2.25 -0.05 0 21.94 -1.15 0.03 -1.13 0.09 -1.11 0.14 -1.09 0.19 -1.06 0.25 -1.04 0.3 -1.05 0.35 -0.97 0.38 -0.98 0.45 -0.98 0.5 -0.91 0.52 -0.88 0.57 -0.9 0.64 -0.83 0.65 -0.79 0.68 -0.78 0.75 -0.75 0.78 -0.68 0.79 -0.67 0.85 -0.63 0.88 -0.55 0.86 -0.53 0.94 -0.51 0.98 -0.42 0.94 -0.4 1 -0.35 1.06 -0.31 1.05 -0.24 1.05 -0.19 1.08 -0.14 1.12 -0.09 1.12 -0.03 1.15 0 0zm22.14 22.15l0 21.94 -2.25 -0.05 -2.25 -0.17 -2.19 -0.28 -2.17 -0.39 -2.16 -0.49 -2.1 -0.6 -2.03 -0.69 -2.03 -0.8 -1.96 -0.89 -1.89 -0.97 -1.84 -1.06 -1.78 -1.14 -1.72 -1.22 -1.67 -1.31 -1.61 -1.4 -1.52 -1.45 -1.45 -1.52 -1.4 -1.61 -1.29 -1.65 -1.24 -1.74 -1.16 -1.81 -1.04 -1.81 -0.98 -1.91 -0.9 -1.98 -0.78 -2 -0.69 -2.03 -0.6 -2.1 -0.49 -2.16 -0.39 -2.17 -0.28 -2.19 -0.17 -2.25 -0.05 -2.25 21.94 0 0.03 1.15 0.09 1.13 0.14 1.11 0.19 1.09 0.25 1.06 0.3 1.04 0.35 1.05 0.4 1 0.42 0.96 0.5 0.95 0.54 0.95 0.56 0.89 0.62 0.86 0.67 0.85 0.68 0.79 0.75 0.78 0.78 0.75 0.79 0.68 0.83 0.65 0.88 0.62 0.9 0.58 0.94 0.54 0.95 0.49 0.98 0.45 0.97 0.38 1.05 0.35 1.04 0.3 1.06 0.25 1.09 0.19 1.11 0.14 1.13 0.09 1.15 0.03z"/>
     </g>
     <g>
      <polygon class="fil9" points="567.34,247.9 469.15,247.9 469.15,225.96 567.34,225.96 "/>
     </g>
     <g>
      <path class="fil9" d="M579.85 213.44l21.94 0 0 0 -0.04 1.76 -0.13 1.75 -0.22 1.75 -0.31 1.68 -0.38 1.67 -0.46 1.6 -0.53 1.6 -0.64 1.61 -0.68 1.51 -0.77 1.52 -0.85 1.45 -0.87 1.36 -0.95 1.35 -1.05 1.33 -1.07 1.24 -1.12 1.17 -1.18 1.13 -1.29 1.13 -1.3 1.01 -1.31 0.94 -1.45 0.93 -1.45 0.82 -1.45 0.74 -1.54 0.7 -1.57 0.62 -1.58 0.53 -1.65 0.48 -1.67 0.38 -1.68 0.31 -1.75 0.22 -1.75 0.13 -1.76 0.04 0 -21.94 0.66 -0.02 0.63 -0.05 0.61 -0.08 0.62 -0.11 0.61 -0.14 0.57 -0.16 0.6 -0.21 0.57 -0.22 0.54 -0.24 0.57 -0.3 0.53 -0.3 0.45 -0.29 0.53 -0.38 0.48 -0.37 0.41 -0.35 0.44 -0.43 0.44 -0.47 0.41 -0.46 0.35 -0.45 0.35 -0.49 0.35 -0.54 0.29 -0.51 0.27 -0.52 0.26 -0.57 0.2 -0.51 0.19 -0.6 0.18 -0.62 0.14 -0.61 0.11 -0.62 0.08 -0.61 0.05 -0.63 0.02 -0.66 0 0zm-12.51 -12.52l0 -21.94 1.76 0.04 1.75 0.13 1.75 0.22 1.68 0.31 1.67 0.38 1.65 0.48 1.58 0.53 1.57 0.62 1.54 0.7 1.45 0.74 1.45 0.82 1.45 0.93 1.31 0.94 1.3 1.01 1.29 1.13 1.18 1.13 1.12 1.17 1.07 1.24 1.05 1.33 0.95 1.35 0.87 1.36 0.85 1.45 0.77 1.52 0.68 1.51 0.64 1.61 0.53 1.6 0.46 1.6 0.38 1.67 0.31 1.68 0.22 1.75 0.13 1.75 0.04 1.76 -21.94 0 -0.02 -0.66 -0.05 -0.63 -0.08 -0.61 -0.11 -0.62 -0.14 -0.61 -0.18 -0.62 -0.19 -0.6 -0.2 -0.51 -0.26 -0.57 -0.27 -0.52 -0.29 -0.51 -0.35 -0.54 -0.35 -0.49 -0.35 -0.45 -0.41 -0.46 -0.44 -0.47 -0.44 -0.43 -0.41 -0.35 -0.48 -0.37 -0.53 -0.38 -0.45 -0.29 -0.53 -0.3 -0.57 -0.3 -0.54 -0.24 -0.57 -0.22 -0.6 -0.21 -0.57 -0.16 -0.61 -0.14 -0.62 -0.11 -0.61 -0.08 -0.63 -0.05 -0.66 -0.02z"/>
     </g>
    </g>
    <g>
     <g>
      <path class="fil9" d="M2075.85 764.48l21.92 1.08 -12.58 10.31 -0.18 -0.02 -0.2 -0.03 -0.17 -0.03 -0.21 -0.03 0.04 0.01 -0.24 -0.03 -0.46 -0.06 0.08 0.01 0.05 0.01 -0.47 -0.05 -0.21 -0.03 0.05 0.01 -0.21 -0.02 -0.21 -0.02 -0.21 -0.02 -0.21 -0.02 0.05 0 -0.21 -0.01 -0.21 -0.02 -0.19 -0.01 -0.22 -0.02 0.03 0 -0.21 -0.01 -0.21 -0.01 -0.2 -0.01 0.03 0 -0.21 0 -0.21 -0.01 -0.22 0 -0.21 -0.01 0.04 0 -0.21 0 0 -21.94 0.21 0 0.48 0 0.21 0.01 0.22 0 0.21 0.01 0.21 0 0.47 0.02 0.22 0.01 0.21 0.01 0.21 0.01 0.45 0.02 0.22 0.02 0.23 0.01 0.21 0.02 0.21 0.01 0.47 0.04 0.21 0.02 0.21 0.02 0.21 0.02 0.21 0.02 0.47 0.05 0.21 0.03 -0.05 -0.01 0.47 0.05 0.5 0.07 -0.06 0 0.18 0.01 0.46 0.07 0.21 0.03 0.25 0.03 0.2 0.03 0.24 0.04 -12.58 10.31zm21.92 1.08l-0.59 12.1 -11.99 -1.79 12.58 -10.31zm75.06 -93.34l0 21.94 0 0 -3.76 0.1 -3.72 0.27 -3.64 0.45 -3.6 0.63 -3.53 0.78 -3.47 0.96 -3.39 1.11 -3.32 1.26 -3.25 1.43 -3.17 1.56 -3.07 1.71 -3 1.85 -2.9 1.99 -2.79 2.09 -2.69 2.25 -2.59 2.36 -2.47 2.47 -2.36 2.58 -2.24 2.7 -2.11 2.8 -1.98 2.89 -1.85 3 -1.71 3.07 -1.56 3.17 -1.42 3.24 -1.26 3.33 -1.12 3.39 -0.95 3.47 -0.8 3.53 -0.61 3.6 -0.46 3.66 -0.27 3.7 -21.92 -1.08 0.35 -4.78 0.58 -4.72 0.81 -4.64 1.02 -4.57 1.23 -4.49 1.44 -4.39 1.64 -4.31 1.84 -4.2 2.02 -4.09 2.21 -3.99 2.39 -3.86 2.56 -3.75 2.73 -3.6 2.88 -3.48 3.04 -3.34 3.19 -3.19 3.33 -3.04 3.49 -2.89 3.61 -2.73 3.74 -2.55 3.86 -2.39 3.99 -2.21 4.09 -2.02 4.19 -1.83 4.32 -1.66 4.39 -1.43 4.49 -1.24 4.57 -1.02 4.64 -0.81 4.74 -0.57 4.76 -0.35 4.84 -0.12 0 0zm73.4 47.97l7.04 20.8 -13.32 -5.46 -1.19 -2.27 -1.28 -2.22 -1.34 -2.19 -1.43 -2.14 -1.48 -2.08 -1.55 -2.02 -1.63 -1.98 -1.68 -1.91 -1.75 -1.85 -1.83 -1.82 -1.86 -1.73 -1.91 -1.66 -2 -1.61 -2.05 -1.54 -2.08 -1.47 -2.14 -1.4 -2.21 -1.33 -2.24 -1.25 -2.28 -1.18 -2.34 -1.1 -2.37 -1.03 -2.4 -0.94 -2.46 -0.86 -2.48 -0.77 -2.53 -0.69 -2.58 -0.61 -2.6 -0.52 -2.61 -0.43 -2.66 -0.33 -2.69 -0.24 -2.72 -0.14 -2.75 -0.06 0 -21.94 3.53 0.06 3.5 0.18 3.47 0.32 3.44 0.43 3.41 0.55 3.36 0.68 3.3 0.77 3.27 0.89 3.24 1.01 3.18 1.12 3.14 1.22 3.07 1.33 3 1.42 2.96 1.52 2.9 1.63 2.81 1.71 2.78 1.8 2.72 1.91 2.61 1.98 2.56 2.07 2.51 2.16 2.42 2.25 2.31 2.3 2.27 2.39 2.18 2.49 2.09 2.54 2.01 2.62 1.92 2.68 1.83 2.76 1.74 2.81 1.64 2.88 1.55 2.95 -13.32 -5.46zm7.04 20.8l-9.02 3.05 -4.3 -8.51 13.32 5.46zm16.98 -24.78l0 21.94 0 0 -0.59 0 -0.5 0.01 -0.51 0.02 -0.59 0.02 -0.57 0.03 -0.59 0.03 -0.49 0.03 -0.49 0.05 -0.65 0.06 -0.58 0.05 -0.47 0.05 -0.49 0.06 -0.56 0.08 -0.56 0.08 -0.48 0.07 -0.57 0.1 -0.54 0.09 -0.54 0.1 -0.55 0.11 -0.48 0.09 -0.53 0.12 -0.53 0.12 -0.46 0.11 -0.55 0.14 -0.52 0.14 -0.54 0.14 -0.52 0.15 -0.53 0.15 -0.54 0.16 -0.4 0.13 -0.53 0.17 -0.53 0.18 -7.04 -20.8 0.69 -0.22 0.67 -0.23 0.82 -0.25 0.7 -0.2 0.69 -0.21 0.72 -0.19 0.7 -0.2 0.72 -0.18 0.71 -0.18 0.78 -0.19 0.73 -0.16 0.73 -0.16 0.8 -0.17 0.71 -0.13 0.74 -0.14 0.74 -0.13 0.73 -0.12 0.8 -0.13 0.74 -0.1 0.74 -0.1 0.81 -0.1 0.83 -0.09 0.74 -0.07 0.65 -0.06 0.83 -0.07 0.83 -0.05 0.75 -0.05 0.75 -0.03 0.75 -0.04 0.83 -0.02 0.84 -0.01 0.75 0 0 0zm75.1 75.1l-21.94 0 0 0 -0.07 -2.75 -0.21 -2.69 -0.34 -2.67 -0.46 -2.61 -0.6 -2.57 -0.71 -2.53 -0.83 -2.45 -0.95 -2.4 -1.08 -2.36 -1.16 -2.29 -1.29 -2.24 -1.38 -2.16 -1.47 -2.07 -1.59 -2.01 -1.67 -1.93 -1.77 -1.85 -1.85 -1.77 -1.93 -1.67 -2.01 -1.59 -2.07 -1.47 -2.16 -1.38 -2.24 -1.29 -2.29 -1.16 -2.36 -1.08 -2.4 -0.95 -2.45 -0.83 -2.53 -0.71 -2.57 -0.6 -2.61 -0.46 -2.67 -0.34 -2.69 -0.21 -2.75 -0.07 0 -21.94 3.85 0.09 3.83 0.29 3.73 0.48 3.71 0.66 3.63 0.84 3.57 1.01 3.51 1.19 3.42 1.35 3.32 1.5 3.23 1.66 3.14 1.81 3.04 1.94 2.97 2.11 2.83 2.23 2.73 2.35 2.59 2.49 2.49 2.59 2.35 2.73 2.23 2.83 2.11 2.97 1.94 3.04 1.81 3.14 1.66 3.23 1.5 3.32 1.35 3.42 1.19 3.51 1.01 3.57 0.84 3.63 0.66 3.71 0.48 3.73 0.29 3.83 0.09 3.85 0 0zm-75.1 75.11l0 -21.94 2.75 -0.07 2.69 -0.21 2.67 -0.34 2.61 -0.46 2.57 -0.6 2.53 -0.71 2.45 -0.83 2.4 -0.95 2.36 -1.08 2.29 -1.16 2.22 -1.28 2.18 -1.4 2.08 -1.47 2 -1.58 1.93 -1.67 1.84 -1.76 1.78 -1.87 1.67 -1.92 1.59 -2.02 1.47 -2.07 1.38 -2.15 1.29 -2.24 1.16 -2.28 1.07 -2.37 0.96 -2.41 0.83 -2.46 0.71 -2.51 0.6 -2.57 0.46 -2.61 0.34 -2.67 0.21 -2.7 0.07 -2.75 21.94 0 -0.09 3.85 -0.29 3.82 -0.48 3.75 -0.66 3.71 -0.84 3.63 -1.01 3.57 -1.19 3.5 -1.34 3.41 -1.51 3.33 -1.66 3.24 -1.81 3.14 -1.94 3.05 -2.11 2.95 -2.23 2.84 -2.35 2.72 -2.48 2.59 -2.6 2.5 -2.73 2.35 -2.84 2.24 -2.96 2.09 -3.02 1.94 -3.16 1.82 -3.23 1.66 -3.32 1.5 -3.42 1.35 -3.51 1.19 -3.57 1.01 -3.63 0.84 -3.71 0.66 -3.73 0.48 -3.83 0.29 -3.85 0.09z"/>
     </g>
     <g>
      <polygon class="fil9" points="2080.07,844.48 2270.25,844.48 2270.25,866.42 2080.07,866.42 "/>
     </g>
     <g>
      <path class="fil9" d="M2023.61 809.96l21.94 0 0 0 0.05 1.8 0.13 1.76 0.22 1.71 0.3 1.7 0.38 1.65 0.48 1.65 0.54 1.6 0.61 1.56 0.7 1.53 0.76 1.49 0.83 1.44 0.9 1.4 0.96 1.35 1.03 1.31 1.08 1.25 1.15 1.2 1.2 1.15 1.25 1.08 1.31 1.03 1.35 0.96 1.4 0.9 1.44 0.83 1.49 0.76 1.53 0.7 1.56 0.61 1.6 0.54 1.65 0.48 1.65 0.38 1.7 0.3 1.71 0.22 1.76 0.13 1.8 0.05 0 21.94 -2.88 -0.07 -2.86 -0.21 -2.85 -0.36 -2.78 -0.5 -2.75 -0.64 -2.67 -0.76 -2.62 -0.88 -2.58 -1.03 -2.49 -1.12 -2.43 -1.24 -2.38 -1.37 -2.28 -1.46 -2.23 -1.58 -2.11 -1.67 -2.07 -1.78 -1.94 -1.87 -1.87 -1.94 -1.78 -2.07 -1.67 -2.11 -1.58 -2.23 -1.46 -2.28 -1.37 -2.38 -1.24 -2.43 -1.12 -2.49 -1.03 -2.58 -0.88 -2.62 -0.76 -2.67 -0.64 -2.75 -0.5 -2.78 -0.36 -2.85 -0.21 -2.86 -0.07 -2.88 0 0zm56.46 -56.46l0 21.94 -1.8 0.05 -1.76 0.13 -1.71 0.22 -1.7 0.3 -1.65 0.38 -1.65 0.48 -1.6 0.54 -1.56 0.61 -1.53 0.7 -1.49 0.76 -1.44 0.83 -1.4 0.9 -1.35 0.96 -1.31 1.03 -1.27 1.09 -1.18 1.13 -1.14 1.19 -1.09 1.27 -1.03 1.31 -0.96 1.35 -0.9 1.4 -0.83 1.44 -0.76 1.49 -0.7 1.53 -0.61 1.56 -0.54 1.6 -0.48 1.65 -0.38 1.65 -0.3 1.7 -0.22 1.71 -0.13 1.76 -0.05 1.8 -21.94 0 0.07 -2.88 0.21 -2.86 0.36 -2.85 0.5 -2.78 0.64 -2.75 0.76 -2.67 0.88 -2.62 1.03 -2.58 1.12 -2.49 1.24 -2.43 1.37 -2.38 1.46 -2.28 1.58 -2.23 1.67 -2.11 1.77 -2.05 1.88 -1.97 1.96 -1.87 2.05 -1.77 2.11 -1.67 2.23 -1.58 2.28 -1.46 2.38 -1.37 2.43 -1.24 2.49 -1.12 2.58 -1.03 2.62 -0.88 2.67 -0.76 2.75 -0.64 2.78 -0.5 2.85 -0.36 2.86 -0.21 2.88 -0.07z"/>
     </g>
     <g>
      <path class="fil9" d="M1853.34 189.7l21.92 1.08 -12.58 10.31 -0.04 -0.01 -0.1 -0.01 -0.04 -0.01 -0.11 -0.01 -0.18 -0.03 0.41 0.06 -0.55 -0.07 -0.18 -0.03 0.41 0.06 -0.06 -0.01 -0.6 -0.07 -0.11 -0.02 0.33 0.05 -0.1 -0.01 -0.06 -0.01 -0.11 -0.01 -0.11 -0.01 -0.11 -0.01 0.38 0.02 -0.11 0 -0.6 -0.04 0.36 0.02 -0.1 0 -0.09 -0.01 -0.11 0 -0.09 -0.01 0.36 0.01 -0.61 -0.01 -0.11 -0.01 0.39 0.01 -0.11 0 -0.11 0 0 -21.94 0.11 0 0.11 0 0.61 0.01 0.11 0.01 -0.39 -0.01 0.6 0.01 0.13 0.01 0.11 0 0.13 0.01 0.1 0 0.58 0.04 -0.38 -0.02 0.11 0 0.6 0.04 0.11 0.01 0.11 0.01 0.11 0.01 0.16 0.01 0.1 0.01 0.55 0.07 0.11 0.02 -0.38 -0.05 0.16 0.01 0.61 0.08 0.04 0.01 -0.33 -0.05 0.61 0.08 0.04 0.01 0.11 0.01 0.18 0.03 0.1 0.01 0.18 0.03 -12.58 10.31zm21.92 1.08l-0.6 12.1 -11.98 -1.79 12.58 -10.31zm33.45 -53.76l0 21.94 0 0 -1.67 0.04 -1.66 0.13 -1.65 0.2 -1.58 0.27 -1.58 0.36 -1.54 0.42 -1.51 0.49 -1.48 0.57 -1.44 0.63 -1.41 0.7 -1.38 0.76 -1.31 0.81 -1.31 0.9 -1.25 0.94 -1.19 0.99 -1.17 1.06 -1.1 1.11 -1.05 1.14 -0.99 1.21 -0.95 1.25 -0.88 1.28 -0.81 1.32 -0.77 1.4 -0.71 1.41 -0.62 1.43 -0.56 1.48 -0.5 1.53 -0.43 1.53 -0.34 1.56 -0.29 1.63 -0.2 1.62 -0.12 1.65 -21.92 -1.08 0.2 -2.73 0.34 -2.7 0.45 -2.63 0.58 -2.62 0.71 -2.57 0.82 -2.51 0.94 -2.46 1.06 -2.41 1.15 -2.33 1.25 -2.26 1.37 -2.22 1.46 -2.14 1.55 -2.05 1.65 -1.99 1.75 -1.92 1.82 -1.81 1.89 -1.72 1.99 -1.67 2.07 -1.54 2.11 -1.46 2.23 -1.37 2.26 -1.26 2.35 -1.16 2.4 -1.05 2.46 -0.93 2.51 -0.83 2.56 -0.7 2.6 -0.58 2.68 -0.47 2.67 -0.32 2.72 -0.21 2.77 -0.06 0 0zm36.22 25.04l7 20.8 -13.3 -5.46 -0.54 -1.02 -0.56 -0.99 -0.59 -0.95 -0.64 -0.96 -0.67 -0.94 -0.7 -0.91 -0.71 -0.86 -0.74 -0.84 -0.81 -0.86 -0.81 -0.82 -0.82 -0.75 -0.85 -0.74 -0.88 -0.71 -0.94 -0.7 -0.93 -0.66 -0.93 -0.61 -0.96 -0.58 -1.03 -0.57 -1.02 -0.53 -1.05 -0.49 -1.05 -0.46 -1.07 -0.42 -1.09 -0.38 -1.12 -0.35 -1.12 -0.31 -1.11 -0.26 -1.15 -0.22 -1.2 -0.2 -1.18 -0.15 -1.21 -0.1 -1.23 -0.07 -1.21 -0.03 0 -21.94 2.03 0.03 1.99 0.11 1.97 0.18 1.96 0.25 1.92 0.3 1.93 0.38 1.93 0.46 1.86 0.51 1.84 0.57 1.81 0.64 1.81 0.7 1.75 0.76 1.71 0.81 1.68 0.87 1.63 0.91 1.64 0.98 1.61 1.05 1.53 1.08 1.48 1.12 1.48 1.19 1.43 1.24 1.38 1.29 1.33 1.32 1.27 1.34 1.26 1.42 1.19 1.46 1.14 1.49 1.09 1.52 1.04 1.56 1.01 1.63 0.94 1.65 0.88 1.68 -13.3 -5.46zm7 20.8l-9.02 3.03 -4.28 -8.49 13.3 5.46zm7.08 -23.13l0 21.94 0 0 -0.19 0 -0.18 0.01 -0.35 0.01 -0.18 0 -0.18 0.02 -0.34 0.02 -0.2 0.01 -0.15 0.01 -0.33 0.03 -0.2 0.02 -0.18 0.02 -0.16 0.02 -0.31 0.04 -0.19 0.02 -0.18 0.04 -0.31 0.05 -0.17 0.03 -0.33 0.06 -0.14 0.02 -0.16 0.04 -0.21 0.04 -0.29 0.07 -0.29 0.07 0 0 -0.32 0.09 -0.32 0.08 -0.17 0.04 -0.17 0.05 -0.12 0.04 -0.31 0.1 -0.32 0.1 -0.13 0.04 -7 -20.8 0.49 -0.16 0.32 -0.1 0.31 -0.1 0.52 -0.16 0.47 -0.13 0.47 -0.14 0.32 -0.08 0.32 -0.09 0.64 -0.16 0.35 -0.07 0.37 -0.09 0.45 -0.1 0.48 -0.1 0.52 -0.1 0.33 -0.06 0.49 -0.09 0.35 -0.05 0.5 -0.08 0.47 -0.06 0.35 -0.06 0.52 -0.06 0.5 -0.06 0.48 -0.04 0.33 -0.03 0.53 -0.05 0.5 -0.03 0.34 -0.02 0.5 -0.02 0.5 -0.02 0.35 -0.01 0.5 -0.01 0.51 0 0 0zm44.08 44.08l-21.94 0 0 0 -0.03 -1.15 -0.09 -1.12 -0.14 -1.12 -0.19 -1.08 -0.24 -1.05 -0.31 -1.05 -0.35 -1.06 -0.4 -1 -0.42 -0.94 -0.51 -0.98 -0.53 -0.94 -0.55 -0.86 -0.63 -0.88 -0.67 -0.85 -0.68 -0.79 -0.75 -0.78 -0.78 -0.75 -0.79 -0.68 -0.83 -0.65 -0.9 -0.64 -0.88 -0.57 -0.91 -0.52 -0.98 -0.5 -0.98 -0.45 -0.97 -0.38 -1.05 -0.35 -1.04 -0.3 -1.06 -0.25 -1.09 -0.19 -1.11 -0.14 -1.13 -0.09 -1.15 -0.03 0 -21.94 2.25 0.05 2.25 0.17 2.19 0.28 2.17 0.39 2.16 0.49 2.1 0.6 2.03 0.69 2.03 0.8 1.96 0.89 1.86 0.96 1.87 1.06 1.8 1.17 1.7 1.2 1.67 1.31 1.61 1.4 1.52 1.45 1.45 1.52 1.4 1.61 1.29 1.65 1.23 1.72 1.17 1.82 1.05 1.84 0.97 1.88 0.9 1.98 0.78 2.02 0.69 2.02 0.59 2.09 0.5 2.15 0.39 2.18 0.28 2.2 0.17 2.24 0.05 2.25 0 0zm-44.08 44.09l0 -21.94 1.15 -0.03 1.13 -0.09 1.11 -0.14 1.09 -0.19 1.06 -0.25 1.04 -0.3 1.05 -0.35 0.97 -0.38 0.98 -0.45 0.95 -0.49 0.94 -0.54 0.9 -0.58 0.88 -0.62 0.83 -0.65 0.79 -0.68 0.78 -0.75 0.75 -0.78 0.68 -0.79 0.67 -0.85 0.62 -0.86 0.56 -0.89 0.54 -0.95 0.5 -0.95 0.42 -0.96 0.4 -1 0.35 -1.05 0.3 -1.04 0.25 -1.06 0.19 -1.09 0.14 -1.11 0.09 -1.13 0.03 -1.15 21.94 0 -0.05 2.25 -0.17 2.25 -0.28 2.19 -0.39 2.17 -0.49 2.16 -0.6 2.1 -0.69 2.03 -0.78 2 -0.9 1.98 -0.98 1.91 -1.04 1.81 -1.16 1.81 -1.24 1.74 -1.29 1.65 -1.4 1.61 -1.45 1.52 -1.52 1.45 -1.61 1.4 -1.67 1.31 -1.72 1.22 -1.78 1.14 -1.84 1.06 -1.89 0.97 -1.96 0.89 -2.03 0.8 -2.03 0.69 -2.1 0.6 -2.16 0.49 -2.17 0.39 -2.19 0.28 -2.25 0.17 -2.25 0.05z"/>
     </g>
     <g>
      <polygon class="fil9" points="1860.82,225.96 1959.01,225.96 1959.01,247.9 1860.82,247.9 "/>
     </g>
     <g>
      <path class="fil9" d="M1826.36 213.44l21.94 0 0 0 0.02 0.66 0.05 0.63 0.08 0.61 0.11 0.62 0.14 0.61 0.17 0.58 0.2 0.6 0.21 0.55 0.26 0.57 0.29 0.56 0.28 0.5 0.31 0.47 0.38 0.53 0.37 0.48 0.38 0.43 0.42 0.45 0.45 0.42 0.43 0.38 0.48 0.37 0.53 0.38 0.47 0.31 0.5 0.28 0.56 0.29 0.57 0.26 0.55 0.21 0.6 0.2 0.58 0.17 0.61 0.14 0.62 0.11 0.61 0.08 0.63 0.05 0.66 0.02 0 21.94 -1.76 -0.04 -1.75 -0.13 -1.75 -0.22 -1.68 -0.31 -1.67 -0.38 -1.64 -0.47 -1.6 -0.54 -1.57 -0.63 -1.51 -0.68 -1.48 -0.75 -1.46 -0.84 -1.43 -0.91 -1.31 -0.94 -1.3 -1.01 -1.27 -1.1 -1.19 -1.14 -1.14 -1.19 -1.1 -1.27 -1.01 -1.3 -0.94 -1.31 -0.91 -1.43 -0.84 -1.46 -0.75 -1.48 -0.68 -1.51 -0.63 -1.57 -0.54 -1.6 -0.47 -1.64 -0.38 -1.67 -0.31 -1.68 -0.22 -1.75 -0.13 -1.75 -0.04 -1.76 0 0zm34.46 -34.46l0 21.94 -0.66 0.02 -0.63 0.05 -0.61 0.08 -0.62 0.11 -0.61 0.14 -0.58 0.17 -0.6 0.2 -0.55 0.21 -0.57 0.26 -0.56 0.29 -0.5 0.28 -0.47 0.31 -0.53 0.38 -0.48 0.37 -0.43 0.38 -0.45 0.42 -0.42 0.45 -0.38 0.43 -0.37 0.48 -0.38 0.53 -0.31 0.47 -0.28 0.5 -0.29 0.56 -0.26 0.57 -0.21 0.55 -0.2 0.6 -0.17 0.58 -0.14 0.61 -0.11 0.62 -0.08 0.61 -0.05 0.63 -0.02 0.66 -21.94 0 0.04 -1.76 0.13 -1.75 0.22 -1.75 0.31 -1.68 0.38 -1.67 0.47 -1.64 0.54 -1.6 0.63 -1.57 0.68 -1.51 0.75 -1.48 0.84 -1.46 0.91 -1.43 0.94 -1.31 1.01 -1.3 1.1 -1.27 1.14 -1.19 1.19 -1.14 1.27 -1.1 1.3 -1.01 1.31 -0.94 1.43 -0.91 1.46 -0.84 1.48 -0.75 1.51 -0.68 1.57 -0.63 1.6 -0.54 1.64 -0.47 1.67 -0.38 1.68 -0.31 1.75 -0.22 1.75 -0.13 1.76 -0.04z"/>
     </g>
    </g>
   </g>
  </g>
 </g>
</svg>
