<?xml version="1.0" encoding="UTF-8"?>
<!DOCTYPE svg PUBLIC "-//W3C//DTD SVG 1.1//EN" "http://www.w3.org/Graphics/SVG/1.1/DTD/svg11.dtd">
<!-- Creator: CorelDRAW 2017 -->
<svg xmlns="http://www.w3.org/2000/svg" xml:space="preserve" width="20.7346mm" height="21.1667mm" version="1.1" style="shape-rendering:geometricPrecision; text-rendering:geometricPrecision; image-rendering:optimizeQuality; fill-rule:evenodd; clip-rule:evenodd"
viewBox="0 0 2073.46 2116.67"
 xmlns:xlink="http://www.w3.org/1999/xlink">
 <defs>
  <style type="text/css">
   <![CDATA[
    .fil4 {fill:#010080;fill-rule:nonzero}
    .fil8 {fill:#3F03A8;fill-rule:nonzero}
    .fil12 {fill:#C8C6D8;fill-rule:nonzero}
    .fil0 {fill:#DFDFE2;fill-rule:nonzero}
    .fil16 {fill:#E2E2E2;fill-rule:nonzero}
    .fil6 {fill:#E49E97;fill-rule:nonzero}
    .fil19 {fill:#ED9E00;fill-rule:nonzero}
    .fil11 {fill:#EDEDF2;fill-rule:nonzero}
    .fil10 {fill:#EDF9FF;fill-rule:nonzero}
    .fil17 {fill:#F7AA00;fill-rule:nonzero}
    .fil5 {fill:#F7B6AF;fill-rule:nonzero}
    .fil2 {fill:#FF3131;fill-rule:nonzero}
    .fil22 {fill:#FF3157;fill-rule:nonzero}
    .fil3 {fill:#FF7272;fill-rule:nonzero}
    .fil23 {fill:#FF7C42;fill-rule:nonzero}
    .fil21 {fill:#FFB5E9;fill-rule:nonzero}
    .fil18 {fill:#FFBA33;fill-rule:nonzero}
    .fil15 {fill:white;fill-rule:nonzero}
    .fil13 {fill:#3F3F3F;fill-rule:nonzero;fill-opacity:0.101961}
    .fil9 {fill:url(#id0);fill-rule:nonzero}
    .fil1 {fill:url(#id1);fill-rule:nonzero}
    .fil14 {fill:url(#id2);fill-rule:nonzero}
    .fil24 {fill:url(#id3);fill-rule:nonzero}
    .fil7 {fill:url(#id4);fill-rule:nonzero}
    .fil25 {fill:url(#id5);fill-rule:nonzero}
    .fil20 {fill:url(#id6);fill-rule:nonzero}
   ]]>
  </style>
  <linearGradient id="id0" gradientUnits="userSpaceOnUse" x1="888.29" y1="2065.14" x2="914.06" y2="1276.68">
   <stop offset="0" style="stop-opacity:1; stop-color:#F6621D"/>
   <stop offset="1" style="stop-opacity:1; stop-color:#FDBC66"/>
  </linearGradient>
  <linearGradient id="id1" gradientUnits="userSpaceOnUse" x1="1024.65" y1="309.99" x2="1267.01" y2="2164.04">
   <stop offset="0" style="stop-opacity:1; stop-color:aqua"/>
   <stop offset="0.360784" style="stop-opacity:1; stop-color:#0070BC"/>
   <stop offset="0.760784" style="stop-opacity:1; stop-color:#9E005D"/>
   <stop offset="1" style="stop-opacity:1; stop-color:#ED1D79"/>
  </linearGradient>
  <linearGradient id="id2" gradientUnits="userSpaceOnUse" x1="1139.4" y1="840.76" x2="412.8" y2="-433.2">
   <stop offset="0" style="stop-opacity:1; stop-color:aqua"/>
   <stop offset="1" style="stop-opacity:1; stop-color:#9E005D"/>
  </linearGradient>
  <linearGradient id="id3" gradientUnits="userSpaceOnUse" x1="1844.83" y1="678.55" x2="2574.48" y2="-488.86">
   <stop offset="0" style="stop-opacity:1; stop-color:aqua"/>
   <stop offset="0.690196" style="stop-opacity:1; stop-color:#9E005D"/>
   <stop offset="1" style="stop-opacity:1; stop-color:#ED1D79"/>
  </linearGradient>
  <linearGradient id="id4" gradientUnits="userSpaceOnUse" x1="1223.74" y1="1415.36" x2="964.8" y2="636.18">
   <stop offset="0" style="stop-opacity:1; stop-color:#3301A0"/>
   <stop offset="1" style="stop-opacity:1; stop-color:#6901A0"/>
  </linearGradient>
  <linearGradient id="id5" gradientUnits="userSpaceOnUse" xlink:href="#id3" x1="110.52" y1="1706.11" x2="1479.63" y2="298.97">
  </linearGradient>
  <linearGradient id="id6" gradientUnits="userSpaceOnUse" xlink:href="#id3" x1="813.97" y1="825.24" x2="351.42" y2="774.64">
  </linearGradient>
 </defs>
 <g id="Layer_x0020_1">
  <metadata id="CorelCorpID_0Corel-Layer"/>
  <g id="_2054926710336">
   <g>
    <path class="fil0" d="M1129.67 2083.9c0,18.1 -116.31,32.77 -259.8,32.77 -143.48,0 -259.8,-14.67 -259.8,-32.77 0,-18.11 116.32,-32.78 259.8,-32.78 143.49,0 259.8,14.67 259.8,32.78z"/>
   </g>
   <g>
    <g>
     <g>
      <g>
       <path class="fil1" d="M1657.8 544.76l-627.7 -233.05c-18.91,-7.02 -39.99,2.73 -47.01,21.64l-423.93 1141.81c-7.03,18.91 2.62,39.95 21.53,46.97l627.7 233.06c18.91,7.02 39.95,-2.63 46.97,-21.54l423.94 -1141.81c7.02,-18.91 -2.59,-40.05 -21.5,-47.08z"/>
      </g>
     </g>
    </g>
   </g>
   <g>
    <g>
     <polygon class="fil2" points="1842.97,1436.61 1330.26,1518.28 1284.16,1228.87 1796.87,1147.2 "/>
    </g>
    <polygon class="fil3" points="1563.56,1332.74 1796.87,1147.2 1284.16,1228.87 "/>
   </g>
   <g>
    <g>
     <path class="fil4" d="M1109.05 723.18c19.82,-17.28 37.16,-101.94 -7.16,-80.67 -44.33,21.26 -10.56,81.27 -10.56,81.27l17.72 -0.6z"/>
    </g>
    <path class="fil5" d="M1121.1 906.96c40.13,10.56 68.83,-8.87 78.3,-18.27 9.48,-9.41 -15.52,-23.14 -23.73,-34.77 -3.51,-4.96 -4.27,-12.41 -3.22,-21.63 1.38,-12.47 6.03,-28.22 11.65,-45.49l-80.27 -24.83c0,0 -2.46,41.62 -4.4,57.04 -0.34,2.76 -0.97,5.05 -1.9,7.06 -4.2,9.23 -14.55,12.1 -31.79,22.8 -20.99,13.02 15.22,47.52 55.36,58.09z"/>
    <path class="fil6" d="M1099.44 819c-0.13,1.02 -0.28,1.97 -0.51,2.87 8.08,9.65 17.76,17.37 26.27,18.44 13.24,1.66 30.38,-2.89 48.25,-14.78 2.04,-11.19 6.01,-24.45 10.66,-38.74l-80.27 -24.83c0,0 -2.46,41.62 -4.4,57.04z"/>
    <path class="fil5" d="M1213.2 737.53c-9,39.39 -14.1,58.38 -33.57,72.53 -19.47,14.14 -38.38,19.64 -52.73,17.83 -17.93,-2.25 -41.02,-33.9 -43.51,-51.36 -2.58,-18.07 -3.52,-63.91 7.69,-106.87 5.69,-21.77 36.38,-45.2 64.57,-41.66 28.18,3.54 79.52,13.3 57.55,109.53z"/>
    <path class="fil5" d="M1075.56 727.42c1.42,14.95 8.91,26.47 16.75,25.73 7.83,-0.74 13.03,-13.46 11.62,-28.41 -1.42,-14.96 -8.91,-26.48 -16.75,-25.74 -7.83,0.74 -13.03,13.47 -11.62,28.42z"/>
    <path class="fil7" d="M1452.13 1113.49l-185.21 48.35 -49.34 -139.74c0,0 -38.49,234.26 -45.96,261.28 -7.22,26.27 -14.11,27.91 -25.7,25.88l-186.46 -32.7c-12.81,-2.25 -19.46,-17.52 -12.99,-41.42 5.23,-19.45 45.87,-177.89 53.17,-250.68 0,0 -23.46,55.96 -59.62,110.95l-175.63 -66.96 19.39 -53.82 122.43 33.62c0,0 41.39,-85.26 87.25,-135.68 13.77,-15.14 53.05,-34.65 76.72,-38.58 7.05,-1.27 13.21,-2.01 18.02,-2.19 0.81,21.99 20.76,37.32 37.1,40.19 16.34,2.86 49.26,-2.51 53.82,-19.46 6.21,2.22 12.54,5.72 18.86,9.9 23.55,15.63 38.49,20.86 48.87,41.42 16.73,33.11 67.86,180.8 67.86,180.8l139.42 -31.24 -2 60.08z"/>
    <g>
     <g>
      <path class="fil8" d="M1035.36 2010.27c3.66,8.32 22.65,28.37 49.98,42.7 27.33,14.32 84.62,26.87 50.51,35.04 -34.1,8.17 -56.82,7.07 -108.42,-10.11 -21.67,-6.25 -19.6,-7.28 -42.84,-6.31 -23.25,0.97 -40.3,7.12 -29.34,-37.78 10.97,-44.9 68.31,-50.42 80.11,-23.54z"/>
     </g>
     <g>
      <path class="fil8" d="M635.79 1821.94c-1.82,8.9 -25.3,29.27 -48.99,49.04 -23.69,19.78 -51.37,30.12 -32.61,40.24 32.5,17.52 48.5,2.23 95.31,-25.46 19.86,-10.69 18.9,-6.7 40.54,-15.22 14.81,-5.83 27.36,-13.61 20.7,-43.12 -10.17,-45.09 -69.09,-34.25 -74.95,-5.48z"/>
     </g>
     <path class="fil9" d="M1169.98 1299.44c0,0 -25.93,180.21 -43.47,288.33 -2.02,12.2 -3.84,23.4 -5.55,33.08 -2.42,14.11 -4.44,25.11 -5.95,31.77 -2.62,11.9 -7.47,34.69 -13.31,62.93 -2.12,10.29 -4.34,21.18 -6.76,32.67 -19.26,94.2 -44.27,220.47 -45.49,236.71 -1.21,16.03 -0.7,29.75 -0.2,36.91 0.2,2.42 -2.32,4.03 -4.54,3.02l-25.61 -11.79c-0.81,-0.41 -1.62,-0.41 -2.42,-0.21 -8.27,3.13 -56.08,20.88 -63.03,29.05 -7.67,8.97 3.02,-22.19 5.64,-55.67 2.02,-24.91 31.97,-175.08 51.23,-269.38 2.43,-11.9 4.64,-22.89 6.66,-32.68 3.93,-19.16 6.86,-33.58 8.27,-40.34 2.02,-9.78 3.53,-30.86 4.64,-56.68 0.5,-10.89 0.91,-22.59 1.31,-34.69 1.92,-63.34 2.22,-136.86 2.32,-150.88 0,-1.41 -1.01,-2.62 -2.42,-3.02l-41.75 -11.1c-0.71,-0.2 -1.41,-0.2 -2.12,0.2 -10.69,5.25 -106.6,52.25 -152.59,91.78 -11.3,9.58 -19.57,18.76 -22.79,26.83 -0.51,1.11 -0.81,2.22 -1.11,3.23 -9.18,37.01 -18.05,66.96 -25.72,88.54 -2.72,7.87 -5.35,14.73 -7.87,20.28 -1.21,2.72 -2.72,6.25 -4.33,10.38 -16.95,40.95 -54.67,141.9 -61.32,161.47 -4.24,12.2 -0.2,20.87 -0.2,29.85 0,14.52 -23.4,21.08 -35.6,15.23 -9.08,-4.34 -27.34,-16.64 -38.03,-14.52 -2.42,0.5 -4.54,-1.31 -4.03,-3.73 6.86,-28.55 32.07,-132.52 54.86,-219.56 2.93,-10.99 5.75,-21.79 8.57,-32.07 11.71,-43.27 21.99,-78.47 27.84,-91.38 3.03,-6.65 9.99,-16.33 19.77,-27.93 55.27,-65.35 193.11,-187.73 193.11,-187.73 0,0 4.96,-15.01 13.25,-13.78 18.07,2.68 19.47,5.81 110.94,24.11 98.74,19.75 110.65,9.74 107.8,30.77z"/>
    </g>
    <g>
     <path class="fil4" d="M1206.6 669.97c-54.55,-6.34 -92.85,-14.64 -111.37,-39.78 -18.54,-25.14 -1.49,-27.96 12.28,-19.29 0,0 9.09,-23.16 30.26,-8.6 0,0 27.4,-17.88 48.12,10.51 0,0 37.41,-11.17 40.68,18.01 0,0 28.15,44.74 -19.97,39.15z"/>
    </g>
    <g>
     <path class="fil4" d="M1231.73 657.95c14.93,21.64 10.8,107.96 -26.89,76.4 -37.69,-31.56 5.17,-74.89 5.17,-74.89l21.72 -1.51z"/>
    </g>
    <path class="fil5" d="M1201.49 734.68c-7.37,13.09 -7.79,26.83 -0.93,30.69 6.85,3.86 18.38,-3.62 25.75,-16.71 7.37,-13.09 7.79,-26.83 0.93,-30.69 -6.85,-3.86 -18.39,3.62 -25.75,16.71z"/>
    <g>
     <path class="fil4" d="M1169.05 1297.81l-228.47 -41.21c-1.57,-0.28 -2.52,-1.91 -1.98,-3.41l8.03 -22.8c0.42,-1.2 1.65,-1.91 2.9,-1.7l224.8 39.35c1.41,0.25 2.36,1.6 2.11,3.01l-4.37 24.66c-0.25,1.42 -1.6,2.36 -3.02,2.1z"/>
    </g>
    <path class="fil10" d="M1197.98 862.43c-17.31,20.86 -43.16,32.03 -69.55,27.41 -28.59,-5.02 -50.29,-27.26 -58.25,-55.85 7.05,-1.27 13.21,-2.01 18.02,-2.19 0.81,21.99 20.76,37.32 37.1,40.19 16.34,2.86 49.26,-2.51 53.82,-19.46 6.21,2.22 12.54,5.72 18.86,9.9z"/>
    <g>
     <path class="fil4" d="M1245.24 657.84c3,-5.93 0.61,-13.18 -5.33,-16.17l-10.85 21.5c5.94,3 13.18,0.61 16.18,-5.33z"/>
    </g>
    <g>
     <path class="fil4" d="M1115.88 659.84c19.97,-6.43 30.95,-27.84 24.52,-47.82l-72.34 23.3c6.43,19.97 27.84,30.95 47.82,24.52z"/>
    </g>
    <g>
     <path class="fil4" d="M1146.44 667.54c10.44,-9.3 11.37,-25.3 2.07,-35.74l-37.8 33.67c9.3,10.44 25.29,11.37 35.73,2.07z"/>
    </g>
    <g>
     <path class="fil4" d="M1243.03 673.08c6.53,-1.27 10.79,-7.59 9.52,-14.12l-23.64 4.6c1.27,6.53 7.59,10.79 14.12,9.52z"/>
    </g>
   </g>
   <g>
    <g>
     <path class="fil11" d="M1657.8 544.75l-13.82 -5.15 -90.46 -33.58 -47.81 -17.75 -256.77 -95.31 -218.85 -81.28c-18.86,-6.96 -39.94,2.72 -47,21.68l-117.79 317.08 -132.32 356.61 -24.71 66.27 0 0.1 -46.6 125.56 -102.56 276.13c-1.21,3.43 -1.92,6.96 -2.12,10.39 -1.11,15.73 8.17,30.96 23.7,36.61l116.58 43.27 87.95 32.67 231.96 86.13 84.52 31.37 106.7 39.63c18.86,7.06 39.94,-2.62 47,-21.48l416.12 -1121.08 7.76 -20.78c7.06,-18.96 -2.52,-40.03 -21.48,-47.09zm-59.7 71.2l0 0 -8.88 23.8 -358.43 965.67c-3.84,10.18 -15.23,15.43 -25.52,11.59l-78.76 -29.24 -95.11 -35.3 -196.56 -73.02 -89.96 -33.38 -71.71 -26.63c-7.76,-2.92 -12.61,-10.08 -12.81,-17.75 -0.2,-2.52 0.2,-5.14 1.11,-7.66l96.42 -259.6 0 -0.1 46.69 -125.56 0 -0.1 24.61 -66.26 132.42 -356.52 67.27 -181.23c3.73,-10.18 15.13,-15.43 25.42,-11.6l125.26 46.5 256.77 95.3 47.7 17.75 90.47 33.59 11.89 4.43c10.29,3.74 15.54,15.13 11.71,25.32z"/>
    </g>
   </g>
   <g>
    <g>
     <path class="fil0" d="M1010.52 1716.86l84.42 31.36c2.42,-11.49 4.64,-22.38 6.76,-32.67l-84.52 -31.37c-2.02,9.79 -4.23,20.78 -6.66,32.68z"/>
    </g>
    <g>
     <path class="fil0" d="M688.7 1597.45l84.32 31.26c1.61,-4.13 3.12,-7.66 4.33,-10.38 2.52,-5.55 5.15,-12.41 7.87,-20.28l-87.95 -32.67c-2.82,10.28 -5.64,21.08 -8.57,32.07z"/>
    </g>
   </g>
   <g>
    <g>
     <path class="fil12" d="M876.77 1591.68c-17.79,-6.61 -26.87,-26.39 -20.26,-44.19 6.61,-17.8 26.39,-26.87 44.19,-20.26 17.8,6.61 26.87,26.39 20.26,44.19 -6.61,17.8 -26.39,26.87 -44.19,20.26z"/>
    </g>
   </g>
   <path class="fil5" d="M735.63 999.85c9.07,1.75 23.02,-0.86 29.8,-4.41 6.79,-3.55 13.26,-24.22 15.38,-39.02 2.12,-14.8 -16.99,-12.94 -16.99,-12.94 0,0 7.45,-2.96 19.6,-4.62 12.14,-1.67 16.94,-15.52 -0.64,-15.29 -17.59,0.24 -34.7,8.62 -50.98,41.94 0,0 -16.7,31 0.09,44.4l3.74 -10.06z"/>
   <path class="fil5" d="M1534.58 1027.2c0.09,-11.75 -20.24,-30.58 -25.83,-23.03 -5.59,7.56 -21.02,34.72 -18.37,47.99 2.65,13.26 9.36,23.29 9.36,23.29l-3.86 10.39c0,0 38.31,-7.75 38.7,-58.64z"/>
   <g>
    <path class="fil13" d="M1219.5 158.53l-763.07 63.07c-18.41,1.52 -32.09,17.67 -30.57,36.07l18.45 223.26c1.53,18.41 17.68,32.09 36.08,30.57l75.23 -6.22 36.5 -3.02c7.2,7.85 25.56,27.75 33.16,34.94 6.88,6.52 18.46,5.56 24.18,-2 6.31,-8.34 21.16,-30.98 26.97,-39.9l185.5 -15.34 381.53 -31.53c18.41,-1.52 32.09,-17.68 30.57,-36.08l-18.45 -223.25c-1.52,-18.41 -17.67,-32.1 -36.08,-30.57z"/>
    <path class="fil13" d="M1755.24 145.66l-240.45 -28.77c-10.3,-1.23 -19.65,6.11 -20.88,16.41l-28.78 240.46c-1.22,10.3 6.12,19.64 16.42,20.87l240.46 28.78c10.29,1.23 19.64,-6.12 20.87,-16.41l28.78 -240.46c1.23,-10.3 -6.12,-19.64 -16.42,-20.88z"/>
    <path class="fil13" d="M705.92 649.69c-7.27,-22.96 -31.78,-35.68 -54.75,-28.41l-280.55 88.85c-22.96,7.28 -35.68,31.79 -28.41,54.75l57.85 182.67c7.28,22.96 31.79,35.68 54.75,28.41l27.41 -8.68c0,0 51.14,35.52 69,46.08 12.87,7.6 30.34,2.07 36.48,-11.56 8.53,-18.9 29.9,-77.4 29.9,-77.4l117.76 -37.3c22.96,-7.27 35.69,-31.78 28.41,-54.75l-57.85 -182.66z"/>
    <path class="fil13" d="M1647.36 732.45c-2.76,-11.62 -18.19,-14.09 -24.45,-3.92l-25.34 41.2 -14.21 -59.66c-2.88,-12.07 -15,-19.53 -27.07,-16.65l-164.21 39.12c-12.07,2.87 -19.53,14.99 -16.65,27.06l39.12 164.21c2.87,12.08 14.99,19.53 27.06,16.65l164.22 -39.12c12.07,-2.87 19.52,-14.99 16.65,-27.06l-14.22 -59.66 41.2 25.34c10.17,6.26 22.83,-2.9 20.06,-14.52l-22.16 -92.99z"/>
    <path class="fil13" d="M165.75 457c-8.55,-17.91 -34.49,-16.54 -41.1,2.17l-52.98 149.81c-6.62,18.71 12.69,36.08 30.6,27.53l101.4 -48.41c11.1,-5.31 15.8,-18.61 10.5,-29.71l-48.42 -101.39z"/>
    <path class="fil13" d="M219.05 48.19c-34.4,10.9 -53.45,47.62 -42.55,82.02 10.9,34.4 47.62,53.45 82.02,42.55 34.4,-10.9 53.45,-47.63 42.54,-82.02 -10.9,-34.4 -47.62,-53.45 -82.01,-42.55z"/>
    <path class="fil13" d="M2014.04 1702.04c-19.35,-14.53 -46.82,-10.62 -61.35,8.73 -14.53,19.35 -10.62,46.82 8.73,61.35 19.36,14.53 46.83,10.62 61.35,-8.73 14.53,-19.36 10.62,-46.82 -8.73,-61.35z"/>
    <path class="fil13" d="M1996.99 546.15c17.24,-42.31 -3.09,-90.58 -45.39,-107.82 -42.31,-17.23 -90.58,3.09 -107.82,45.4 -17.23,42.31 3.09,90.58 45.4,107.81 42.31,17.24 90.58,-3.09 107.81,-45.39z"/>
    <path class="fil13" d="M576.58 1114.41c-59.24,18.5 -92.26,81.51 -73.76,140.75 18.51,59.23 81.52,92.25 140.75,73.75 59.24,-18.5 92.26,-81.52 73.76,-140.75 -18.5,-59.24 -81.52,-92.26 -140.75,-73.75z"/>
   </g>
   <g>
    <g>
     <path class="fil14" d="M1232.81 104.05l-818.62 67.66c-19.74,1.63 -34.42,18.96 -32.79,38.7l19.8 239.51c1.63,19.74 18.96,34.43 38.7,32.79l80.7 -6.67 39.17 -3.23c7.72,8.41 27.41,29.76 35.57,37.48 7.38,6.98 19.8,5.96 25.93,-2.15 6.78,-8.95 22.7,-33.24 28.94,-42.81l199 -16.45 409.3 -33.83c19.74,-1.63 34.43,-18.96 32.79,-38.7l-19.79 -239.51c-1.64,-19.74 -18.96,-34.42 -38.7,-32.79z"/>
     <g>
      <path class="fil15" d="M580.81 321.87c7.44,-7.89 11.67,-18.76 10.71,-30.43l-1.61 -19.42c-1.79,-21.62 -20,-39.09 -41.66,-37.95 -22.41,1.18 -39.26,20.61 -37.43,42.82l1.75 21.08c0.96,11.66 6.91,21.69 15.55,28.25 -25.81,11.06 -44.63,34.6 -49.45,62.49 -1.88,10.85 7.41,20.45 18.39,19.54l127.85 -10.57c10.99,-0.91 18.57,-11.89 14.94,-22.3 -9.34,-26.71 -31.76,-46.85 -59.04,-53.51z"/>
     </g>
     <g>
      <g>
       <path class="fil15" d="M911.09 203.94l-163.14 13.49c-13.36,1.1 -23.29,12.82 -22.18,26.17l6.62 80.16c1.11,13.36 12.83,23.29 26.18,22.18l15.94 -1.31c0,0 23.34,25.59 31.72,33.52 6.04,5.72 16.2,4.88 21.21,-1.75 6.97,-9.2 25.79,-38.28 25.79,-38.28l68.48 -5.66c13.35,-1.1 23.28,-12.83 22.18,-26.18l-6.63 -80.16c-1.1,-13.35 -12.82,-23.28 -26.17,-22.18z"/>
      </g>
      <path class="fil16" d="M766.02 258.21c-5.2,0 -9.61,-3.98 -10.05,-9.25 -0.45,-5.56 3.67,-10.42 9.23,-10.88l132.27 -10.93c5.42,-0.5 10.42,3.67 10.88,9.21 0.45,5.56 -3.67,10.43 -9.23,10.89l-132.27 10.93c-0.27,0.02 -0.56,0.03 -0.83,0.03z"/>
      <path class="fil16" d="M768.89 292.92c-5.19,0 -9.6,-3.99 -10.04,-9.26 -0.46,-5.55 3.67,-10.42 9.22,-10.88l132.26 -10.93c5.48,-0.55 10.42,3.67 10.89,9.22 0.45,5.55 -3.68,10.42 -9.23,10.88l-132.26 10.93c-0.28,0.03 -0.56,0.04 -0.84,0.04z"/>
      <path class="fil16" d="M771.76 327.63c-5.19,0 -9.6,-3.99 -10.05,-9.26 -0.45,-5.55 3.68,-10.42 9.23,-10.88l59.63 -4.93c5.45,-0.46 10.41,3.67 10.89,9.22 0.45,5.55 -3.68,10.42 -9.23,10.88l-59.64 4.93c-0.27,0.02 -0.56,0.04 -0.83,0.04z"/>
     </g>
     <g>
      <path class="fil15" d="M1217.13 315.41c-1.34,-16.34 -7.96,-31.04 -18.05,-42.52l-1.42 -17.24c-2.41,-29.1 -25.45,-51.49 -53.56,-54.11l-0.42 -5.09c-0.47,-5.71 -5.49,-9.97 -11.21,-9.49 -5.71,0.47 -9.97,5.49 -9.49,11.21l0.42 5.08c-27.29,7.19 -46.35,33.07 -43.95,62.17l1.43 17.22c-0.01,0.01 -0.01,0.01 -0.01,0.02 -8.01,12.98 -12.13,28.56 -10.78,44.9l0.62 7.49c0.32,3.81 3.66,6.65 7.48,6.33l29.24 -2.42c-0.25,2.16 0.54,4.44 2.76,5.82 10.42,6.43 22.92,9.7 36.03,8.62 13.13,-1.09 24.92,-6.36 34.14,-14.43 1.96,-1.71 2.37,-4.09 1.76,-6.18l29.3 -2.42c3.81,-0.32 6.65,-3.66 6.34,-7.48l-0.63 -7.48z"/>
     </g>
    </g>
    <g>
     <path class="fil2" d="M1091.64 331.78c1.42,17.2 -11.37,32.31 -28.58,33.73 -17.21,1.42 -32.31,-11.37 -33.73,-28.58 -1.42,-17.21 11.37,-32.31 28.58,-33.73 17.21,-1.42 32.31,11.37 33.73,28.58z"/>
    </g>
   </g>
   <g>
    <g>
     <path class="fil17" d="M1771.88 388.21l-257.96 -30.87c-11.04,-1.32 -18.92,-11.34 -17.6,-22.39l30.87 -257.96c1.32,-11.04 11.35,-18.93 22.39,-17.61l257.96 30.87c11.04,1.33 18.93,11.35 17.6,22.4l-30.87 257.96c-1.32,11.04 -11.34,18.93 -22.39,17.6z"/>
    </g>
    <g>
     <path class="fil18" d="M1526.33 318.51l26.14 -218.46c0.8,-6.68 6.87,-11.45 13.55,-10.65l218.46 26.14c6.68,0.8 11.45,6.87 10.65,13.55l-26.14 218.46c-0.8,6.68 -6.87,11.45 -13.55,10.65l-218.46 -26.15c-6.68,-0.79 -11.45,-6.86 -10.65,-13.54z"/>
    </g>
    <g>
     <path class="fil19" d="M1666.45 243.64l-26.85 21.11c-4.93,3.89 -12.08,3.03 -15.96,-1.91 -3.89,-4.93 -11.03,-5.79 -15.97,-1.91l-39.75 31.26c-7.96,6.26 -4.38,19.02 5.68,20.23l4.67 0.56 93.59 11.19 52.63 6.3c10.06,1.21 16.55,-10.35 10.29,-18.31l-52.36 -66.6c-3.88,-4.94 -11.03,-5.8 -15.97,-1.92z"/>
    </g>
    <path class="fil19" d="M1618.25 198.54c-1.32,10.98 -11.29,18.82 -22.28,17.51 -10.98,-1.32 -18.82,-11.29 -17.51,-22.27 1.32,-10.99 11.29,-18.83 22.27,-17.52 10.99,1.32 18.83,11.29 17.52,22.28z"/>
   </g>
   <g>
    <path class="fil20" d="M603.01 579.59l-300.97 95.32c-24.64,7.8 -38.28,34.1 -30.48,58.74l62.06 195.95c7.81,24.64 34.1,38.28 58.74,30.48l29.4 -9.31c0,0 54.86,38.12 74.02,49.44 13.8,8.15 32.55,2.22 39.14,-12.4 9.15,-20.28 32.07,-83.04 32.07,-83.04l126.33 -40.01c24.64,-7.8 38.29,-34.1 30.48,-58.73l-62.06 -195.96c-7.8,-24.64 -34.09,-38.28 -58.73,-30.48z"/>
    <g>
     <path class="fil21" d="M603.87 681.26l-244.01 77.28c-7.96,2.52 -16.46,-1.89 -18.99,-9.85 -2.52,-7.97 1.9,-16.47 9.86,-19l244.01 -77.28c7.96,-2.52 16.46,1.89 18.99,9.86 2.52,7.97 -1.9,16.47 -9.86,18.99z"/>
    </g>
    <g>
     <path class="fil21" d="M625.67 750.09l-244.01 77.28c-7.96,2.52 -16.46,-1.89 -18.99,-9.85 -2.52,-7.97 1.89,-16.47 9.86,-18.99l244.01 -77.28c7.96,-2.53 16.46,1.89 18.99,9.85 2.52,7.97 -1.9,16.47 -9.86,18.99z"/>
    </g>
    <g>
     <path class="fil21" d="M513.48 861.37l-110.02 34.84c-7.96,2.52 -16.46,-1.89 -18.98,-9.86 -2.53,-7.96 1.89,-16.46 9.85,-18.99l110.01 -34.84c7.97,-2.52 16.47,1.89 18.99,9.86 2.52,7.96 -1.89,16.46 -9.85,18.99z"/>
    </g>
   </g>
   <g>
    <g>
     <path class="fil22" d="M1642.46 683.99l-27.19 44.2 -15.25 -64.01c-3.08,-12.95 -16.08,-20.94 -29.03,-17.86l-176.17 41.97c-12.95,3.09 -20.94,16.09 -17.86,29.03l41.97 176.17c3.08,12.95 16.08,20.95 29.03,17.86l176.17 -41.97c12.95,-3.08 20.95,-16.08 17.86,-29.03l-15.25 -64 44.2 27.19c10.91,6.71 24.48,-3.12 21.52,-15.58l-23.77 -99.76c-2.97,-12.47 -19.52,-15.12 -26.23,-4.21z"/>
    </g>
    <polygon class="fil15" points="1478.08,731.39 1542.44,770.98 1502.85,835.34 "/>
   </g>
   <g>
    <g>
     <path class="fil23" d="M154.31 533.02l-51.95 -108.77c-9.17,-19.22 -37,-17.75 -44.1,2.33l-56.83 160.71c-7.1,20.08 13.62,38.71 32.83,29.54l108.78 -51.94c11.91,-5.69 16.95,-19.96 11.27,-31.87z"/>
    </g>
    <path class="fil15" d="M120.86 515.18l-12.58 -19.88 0.79 -2.25c0.97,-2.72 -0.46,-5.71 -3.18,-6.67 -2.73,-0.97 -5.72,0.46 -6.68,3.18l-17.6 49.78c-3.35,-3.37 -7.92,-6.29 -13.33,-8.2 -13.41,-4.74 -26.78,-1.52 -29.86,7.2 -3.09,8.71 5.29,19.63 18.7,24.37 13.24,4.68 26.42,1.59 29.72,-6.88 0.04,-0.08 0.09,-0.16 0.12,-0.24l12.3 -34.79 7.37 11.65c2.76,4.37 9.35,3.62 11.07,-1.24l3.76 -10.65c0.63,-1.79 0.41,-3.77 -0.6,-5.38z"/>
   </g>
   <g>
    <g>
     <path class="fil2" d="M266.09 48.94c11.69,36.9 -8.74,76.29 -45.64,87.99 -36.9,11.69 -76.3,-8.74 -87.99,-45.64 -11.69,-36.9 8.74,-76.3 45.64,-87.99 36.91,-11.7 76.3,8.74 87.99,45.64z"/>
    </g>
    <path class="fil15" d="M226.55 36.37c-12.43,-7.21 -28.22,-2.51 -34.77,10.1 -12.61,-6.54 -28.22,-1.29 -34.23,11.77 -5.63,12.23 -0.12,26.74 11.83,32.94l35.07 18.19c4.8,2.49 10.72,0.62 13.21,-4.18l18.19 -35.07c6.19,-11.95 2.34,-26.99 -9.3,-33.75z"/>
   </g>
   <g>
    <g>
     <path class="fil2" d="M2064.04 1795.22c-15.58,20.76 -45.05,24.96 -65.81,9.37 -20.77,-15.59 -24.96,-45.05 -9.37,-65.82 15.58,-20.76 45.05,-24.95 65.81,-9.37 20.76,15.59 24.96,45.06 9.37,65.82z"/>
    </g>
    <path class="fil15" d="M2055.5 1768.74c-0.91,-9.6 -9.63,-16.39 -19.06,-15.05 -1.34,-9.43 -10.3,-15.91 -19.77,-14.1 -8.87,1.69 -14.64,10.36 -13.37,19.3l3.74 26.23c0.51,3.59 3.83,6.09 7.42,5.58l26.23 -3.74c8.95,-1.27 15.66,-9.23 14.81,-18.22z"/>
   </g>
   <g>
    <path class="fil24" d="M2061.62 496.67c-18.49,45.38 -70.27,67.19 -115.66,48.7 -45.39,-18.49 -67.19,-70.27 -48.7,-115.66 18.49,-45.39 70.27,-67.19 115.66,-48.7 45.38,18.49 67.19,70.27 48.7,115.66z"/>
    <g>
     <path class="fil15" d="M2011.75 417.26c-3.52,-3.99 -9.49,-4.64 -13.7,-1.13 -0.16,0.16 -10.72,11.21 -26.42,21.23l-8.42 -3.42c-0.7,-0.29 -1.5,0.05 -1.79,0.75l-18.06 44.34c-0.29,0.7 0.05,1.51 0.75,1.79l6.3 2.57c1.04,8.72 6.62,16.13 14.79,19.46l3.71 1.51 24.31 9.91 5.44 2.22c4.95,2.01 10.62,-0.37 12.64,-5.32 1.03,-2.52 0.9,-5.23 -0.12,-7.54l3.92 1.59c4.95,2.02 10.62,-0.37 12.63,-5.32 1.16,-2.83 0.84,-5.88 -0.54,-8.37 3.97,0.17 7.8,-2.1 9.39,-5.99 2.01,-4.94 -0.37,-10.61 -5.33,-12.63l-0.06 -0.03c2.35,-0.94 4.35,-2.77 5.38,-5.3 2.01,-4.95 -0.38,-10.62 -5.32,-12.63l-34.23 -13.95c8.39,-6.9 20.85,-16.8 14.73,-23.74z"/>
     <path class="fil15" d="M1922.54 474.91l11.4 4.64c1.79,0.73 3.84,-0.13 4.56,-1.92l18.47 -45.33c0.73,-1.79 -0.13,-3.84 -1.92,-4.56l-11.4 -4.65c-1.79,-0.73 -3.83,0.13 -4.56,1.92l-18.47 45.34c-0.73,1.79 0.13,3.83 1.92,4.56z"/>
    </g>
   </g>
   <g>
    <path class="fil25" d="M674.66 1208.62c19.84,63.55 -15.58,131.15 -79.12,151 -63.55,19.85 -131.15,-15.58 -151,-79.12 -19.85,-63.55 15.58,-131.15 79.12,-151 63.54,-19.85 131.15,15.58 151,79.12z"/>
    <g>
     <path class="fil15" d="M553.76 1168.5c-7.13,-1.14 -13.96,3.34 -15.33,10.65 -0.02,0.31 -1.55,21.02 -9.34,45.1l-11.78 3.67c-0.98,0.31 -1.53,1.36 -1.22,2.35l19.38 62.07c0.31,0.99 1.36,1.54 2.35,1.23l8.82 -2.76c8.63,8.25 20.88,11.2 32.32,7.62l5.19 -1.62 34.04 -10.63 7.62 -2.38c6.93,-2.16 10.81,-9.56 8.65,-16.49 -1.11,-3.53 -3.57,-6.26 -6.64,-7.81l5.48 -1.71c6.93,-2.16 10.81,-9.56 8.64,-16.49 -1.24,-3.97 -4.2,-6.9 -7.8,-8.3 4.3,-3.26 6.36,-8.95 4.66,-14.39 -2.16,-6.93 -9.57,-10.81 -16.5,-8.65l-0.09 0.03c1.65,-3.02 2.16,-6.66 1.06,-10.2 -2.17,-6.93 -9.57,-10.81 -16.5,-8.64l-47.92 14.97c2.83,-14.49 7.32,-35.63 -5.09,-37.62z"/>
     <path class="fil15" d="M510.1 1306.02l15.96 -4.99c2.51,-0.78 3.9,-3.45 3.12,-5.95l-19.82 -63.48c-0.78,-2.5 -3.45,-3.9 -5.96,-3.12l-15.96 4.99c-2.5,0.78 -3.9,3.45 -3.12,5.95l19.83 63.47c0.78,2.51 3.45,3.91 5.95,3.13z"/>
    </g>
   </g>
  </g>
 </g>
</svg>
